<svg width="15" height="14" viewBox="0 0 15 14" fill="none" xmlns="http://www.w3.org/2000/svg">
<path d="M6.40625 5.17773C6.40625 4.57367 6.89594 4.08398 7.5 4.08398C8.10406 4.08398 8.59375 4.57367 8.59375 5.17773C8.59375 5.57874 8.37794 5.92935 8.05613 6.11975C7.77886 6.28379 7.5 6.53265 7.5 6.85482V7.58398" stroke="#4DA7FF" stroke-linecap="round"/>
<circle cx="7.50008" cy="9.33333" r="0.583333" fill="#4DA7FF"/>
<path d="M4.58341 1.94641C5.44142 1.45008 6.43758 1.16602 7.50008 1.16602C10.7217 1.16602 13.3334 3.77769 13.3334 6.99935C13.3334 10.221 10.7217 12.8327 7.50008 12.8327C4.27842 12.8327 1.66675 10.221 1.66675 6.99935C1.66675 5.93684 1.95081 4.94069 2.44714 4.08268" stroke="#4DA7FF" stroke-linecap="round"/>
</svg>
