<svg width="41" height="40" viewBox="0 0 41 40" fill="none" xmlns="http://www.w3.org/2000/svg">
<path d="M37.1673 36.666L3.83398 36.666" stroke="#4DA7FF" stroke-width="1.5" stroke-linecap="round"/>
<path d="M35.4993 36.6673V21.6673M18.8398 8.33398C18.8697 6.26768 19.023 5.0962 19.8089 4.3103C20.7852 3.33398 22.3566 3.33398 25.4993 3.33398H28.8326C31.9753 3.33398 33.5466 3.33398 34.523 4.3103C35.4993 5.28661 35.4993 6.85795 35.4993 10.0007V15.0007" stroke="#4DA7FF" stroke-width="1.5" stroke-linecap="round"/>
<path d="M25.5 36.6673V26.6673M5.5 36.6673V21.6673M5.5 15.0007C5.5 11.858 5.5 10.2866 6.47631 9.3103C7.45262 8.33398 9.02397 8.33398 12.1667 8.33398H18.8333C21.976 8.33398 23.5474 8.33398 24.5237 9.3103C25.5 10.2866 25.5 11.858 25.5 15.0007V20.0007" stroke="#4DA7FF" stroke-width="1.5" stroke-linecap="round"/>
<path d="M15.5 36.666V31.666" stroke="#4DA7FF" stroke-width="1.5" stroke-linecap="round"/>
<path d="M10.5 13.334H20.5" stroke="#4DA7FF" stroke-width="1.5" stroke-linecap="round"/>
<path d="M10.5 18.334H12.1667M20.5 18.334H16.3333" stroke="#4DA7FF" stroke-width="1.5" stroke-linecap="round"/>
<path d="M10.5 23.334H20.5" stroke="#4DA7FF" stroke-width="1.5" stroke-linecap="round"/>
</svg>
