<svg width="25" height="24" viewBox="0 0 25 24" fill="none" xmlns="http://www.w3.org/2000/svg">
<path d="M14.5312 22H10.5312C6.76001 22 4.8744 22 3.70282 20.8284C2.53125 19.6569 2.53125 17.7712 2.53125 14V12C2.53125 8.22876 2.53125 6.34315 3.70282 5.17157C4.8744 4 6.76001 4 10.5312 4H14.5312C18.3025 4 20.1881 4 21.3597 5.17157C22.5312 6.34315 22.5312 8.22876 22.5312 12V14C22.5312 17.7712 22.5312 19.6569 21.3597 20.8284C20.7065 21.4816 19.8314 21.7706 18.5312 21.8985" stroke="#1C274C" stroke-width="1.5" stroke-linecap="round"/>
<path d="M7.53125 4V2.5" stroke="#1C274C" stroke-width="1.5" stroke-linecap="round"/>
<path d="M17.5312 4V2.5" stroke="#1C274C" stroke-width="1.5" stroke-linecap="round"/>
<path d="M22.0312 9H17.1562H11.2812M2.53125 9H6.40625" stroke="#1C274C" stroke-width="1.5" stroke-linecap="round"/>
<path d="M18.5312 17C18.5312 17.5523 18.0835 18 17.5312 18C16.979 18 16.5312 17.5523 16.5312 17C16.5312 16.4477 16.979 16 17.5312 16C18.0835 16 18.5312 16.4477 18.5312 17Z" fill="#1C274C"/>
<path d="M18.5312 13C18.5312 13.5523 18.0835 14 17.5312 14C16.979 14 16.5312 13.5523 16.5312 13C16.5312 12.4477 16.979 12 17.5312 12C18.0835 12 18.5312 12.4477 18.5312 13Z" fill="#1C274C"/>
<path d="M13.5312 17C13.5312 17.5523 13.0835 18 12.5312 18C11.979 18 11.5312 17.5523 11.5312 17C11.5312 16.4477 11.979 16 12.5312 16C13.0835 16 13.5312 16.4477 13.5312 17Z" fill="#1C274C"/>
<path d="M13.5312 13C13.5312 13.5523 13.0835 14 12.5312 14C11.979 14 11.5312 13.5523 11.5312 13C11.5312 12.4477 11.979 12 12.5312 12C13.0835 12 13.5312 12.4477 13.5312 13Z" fill="#1C274C"/>
<path d="M8.53125 17C8.53125 17.5523 8.08353 18 7.53125 18C6.97897 18 6.53125 17.5523 6.53125 17C6.53125 16.4477 6.97897 16 7.53125 16C8.08353 16 8.53125 16.4477 8.53125 17Z" fill="#1C274C"/>
<path d="M8.53125 13C8.53125 13.5523 8.08353 14 7.53125 14C6.97897 14 6.53125 13.5523 6.53125 13C6.53125 12.4477 6.97897 12 7.53125 12C8.08353 12 8.53125 12.4477 8.53125 13Z" fill="#1C274C"/>
</svg>
