<svg width="41" height="40" viewBox="0 0 41 40" fill="none" xmlns="http://www.w3.org/2000/svg">
<path d="M23.834 36.666H17.1673C10.8819 36.666 7.73923 36.666 5.78661 34.7134C3.83398 32.7608 3.83398 29.6181 3.83398 23.3327V19.9993C3.83398 13.714 3.83398 10.5713 5.78661 8.61864C7.73923 6.66602 10.8819 6.66602 17.1673 6.66602H23.834C30.1194 6.66602 33.2621 6.66602 35.2147 8.61864C37.1673 10.5713 37.1673 13.714 37.1673 19.9993V23.3327C37.1673 29.6181 37.1673 32.7608 35.2147 34.7134C34.1261 35.802 32.6675 36.2837 30.5007 36.4969" stroke="#4DA7FF" strokeWidth="1.5" strokeLinecap="round"/>
<path d="M12.166 6.66602V4.16602" stroke="#4DA7FF" strokeWidth="1.5" strokeLinecap="round"/>
<path d="M28.834 6.66602V4.16602" stroke="#4DA7FF" strokeWidth="1.5" strokeLinecap="round"/>
<path d="M36.334 15H28.209H18.4173M3.83399 15H10.2923" stroke="#4DA7FF" strokeWidth="1.5" strokeLinecap="round"/>
<path d="M30.4993 28.3333C30.4993 29.2538 29.7532 30 28.8327 30C27.9122 30 27.166 29.2538 27.166 28.3333C27.166 27.4129 27.9122 26.6667 28.8327 26.6667C29.7532 26.6667 30.4993 27.4129 30.4993 28.3333Z" fill="#4DA7FF"/>
<path d="M30.4993 21.6667C30.4993 22.5871 29.7532 23.3333 28.8327 23.3333C27.9122 23.3333 27.166 22.5871 27.166 21.6667C27.166 20.7462 27.9122 20 28.8327 20C29.7532 20 30.4993 20.7462 30.4993 21.6667Z" fill="#4DA7FF"/>
<path d="M22.1673 28.3333C22.1673 29.2538 21.4211 30 20.5007 30C19.5802 30 18.834 29.2538 18.834 28.3333C18.834 27.4129 19.5802 26.6667 20.5007 26.6667C21.4211 26.6667 22.1673 27.4129 22.1673 28.3333Z" fill="#4DA7FF"/>
<path d="M22.1673 21.6667C22.1673 22.5871 21.4211 23.3333 20.5007 23.3333C19.5802 23.3333 18.834 22.5871 18.834 21.6667C18.834 20.7462 19.5802 20 20.5007 20C21.4211 20 22.1673 20.7462 22.1673 21.6667Z" fill="#4DA7FF"/>
<path d="M13.8333 28.3333C13.8333 29.2538 13.0871 30 12.1667 30C11.2462 30 10.5 29.2538 10.5 28.3333C10.5 27.4129 11.2462 26.6667 12.1667 26.6667C13.0871 26.6667 13.8333 27.4129 13.8333 28.3333Z" fill="#4DA7FF"/>
<path d="M13.8333 21.6667C13.8333 22.5871 13.0871 23.3333 12.1667 23.3333C11.2462 23.3333 10.5 22.5871 10.5 21.6667C10.5 20.7462 11.2462 20 12.1667 20C13.0871 20 13.8333 20.7462 13.8333 21.6667Z" fill="#4DA7FF"/>
</svg>
