<svg width="41" height="40" viewBox="0 0 41 40" fill="none" xmlns="http://www.w3.org/2000/svg">
<g id="Broken / Money / Card Send">
<path id="Vector" d="M32.1673 33.334V23.334M32.1673 23.334L35.5007 26.6673M32.1673 23.334L28.834 26.6673" stroke="#4DA7FF" strokeWidth="1.5" strokeLinecap="round" stroke-linejoin="round"/>
<path id="Vector_2" d="M37.1673 19.9993C37.1673 13.714 37.1673 10.5713 35.2147 8.61864C33.2621 6.66602 30.1194 6.66602 23.834 6.66602M23.834 33.3327H17.1673C10.8819 33.3327 7.73923 33.3327 5.78661 31.3801C3.83398 29.4274 3.83398 26.2847 3.83398 19.9993C3.83398 13.714 3.83398 10.5713 5.78661 8.61864C7.73923 6.66602 10.8819 6.66602 17.1673 6.66602" stroke="#4DA7FF" strokeWidth="1.5" strokeLinecap="round"/>
<path id="Vector_3" d="M17.1667 26.666H10.5" stroke="#4DA7FF" strokeWidth="1.5" strokeLinecap="round"/>
<path id="Vector_4" d="M22.1673 26.666H21.334" stroke="#4DA7FF" strokeWidth="1.5" strokeLinecap="round"/>
<path id="Vector_5" d="M3.83398 16.666H12.1673M37.1673 16.666H18.834" stroke="#4DA7FF" strokeWidth="1.5" strokeLinecap="round"/>
</g>
</svg>
