<svg width="41" height="40" viewBox="0 0 41 40" fill="none" xmlns="http://www.w3.org/2000/svg">
<path d="M37.1666 22.5C37.1666 16.2147 37.1666 10.5719 35.214 8.61929C33.2613 6.66667 30.1186 6.66667 23.8333 6.66667H17.1666C10.8812 6.66667 7.73849 6.66667 5.78587 8.61929C3.83325 10.5719 3.83325 13.7146 3.83325 20C3.83325 26.2854 3.83325 29.4281 5.78587 31.3807C7.73849 33.3333 10.8812 33.3333 17.1666 33.3333H23.8333C30.1186 33.3333 33.2613 33.3333 35.214 31.3807C36.3026 30.2921 36.7843 28.8335 36.9974 26.6667" stroke="#4DA7FF" stroke-width="1.5" stroke-linecap="round"/>
<path d="M15.5 27H6.5" stroke="#4DA7FF" stroke-width="1.5" stroke-linecap="round"/>
<path d="M20.5 27L18.5 27" stroke="#4DA7FF" stroke-width="1.5" stroke-linecap="round"/>
<path d="M4.5 16L12.75 16M36 16L19.35 16" stroke="#4DA7FF" stroke-width="1.5" stroke-linecap="round"/>
</svg>
