<svg width="40" height="40" viewBox="0 0 40 40" fill="none" xmlns="http://www.w3.org/2000/svg">
<path d="M15 22.334L17.8571 25.0007L25 18.334" stroke="#4DA7FF" stroke-width="1.5" stroke-linecap="round" stroke-linejoin="round"/>
<path d="M35 26.667C35 31.3811 35 33.7381 33.5355 35.2026C32.0711 36.667 29.714 36.667 25 36.667H15C10.286 36.667 7.92893 36.667 6.46447 35.2026C5 33.7381 5 31.3811 5 26.667V21.667M26.6667 6.66992C30.2917 6.6901 32.2549 6.85085 33.5355 8.13149C35 9.59596 35 11.953 35 16.667V20.0004M13.3333 6.66992C9.70829 6.6901 7.74511 6.85085 6.46447 8.13149C5.18387 9.41209 5.02309 11.3752 5.0029 15" stroke="#4DA7FF" stroke-width="1.5" stroke-linecap="round"/>
<path d="M13.3335 5.83398C13.3335 4.45327 14.4528 3.33398 15.8335 3.33398H24.1668C25.5475 3.33398 26.6668 4.45327 26.6668 5.83398V7.50065C26.6668 8.88136 25.5475 10.0007 24.1668 10.0007H15.8335C14.4528 10.0007 13.3335 8.88136 13.3335 7.50065V5.83398Z" stroke="#4DA7FF" stroke-width="1.5"/>
</svg>
