<svg width="41" height="40" viewBox="0 0 41 40" fill="none" xmlns="http://www.w3.org/2000/svg">
<path d="M15.5 23.3333H20.5" stroke="#4DA7FF" stroke-width="1.5" stroke-linecap="round"/>
<path d="M17.1667 20V13.6667C17.1667 13.357 17.1667 13.2022 17.1872 13.0726C17.3001 12.3595 17.8595 11.8001 18.5726 11.6872C18.7022 11.6667 18.857 11.6667 19.1667 11.6667H23C25.3012 11.6667 27.1667 13.5322 27.1667 15.8333C27.1667 18.1345 25.3012 20 23 20H17.1667ZM17.1667 20V28.3333M17.1667 20H15.5" stroke="#4DA7FF" stroke-width="1.5" stroke-linecap="round"/>
<path d="M12.1666 5.56303C14.618 4.14495 17.4642 3.33333 20.4999 3.33333C29.7047 3.33333 37.1666 10.7952 37.1666 20C37.1666 29.2047 29.7047 36.6667 20.4999 36.6667C11.2952 36.6667 3.83325 29.2047 3.83325 20C3.83325 16.9643 4.64487 14.1181 6.06295 11.6667" stroke="#4DA7FF" stroke-width="1.5" stroke-linecap="round"/>
</svg>
