<svg width="40" height="40" viewBox="0 0 40 40" fill="none" xmlns="http://www.w3.org/2000/svg">
<path d="M12.2846 13.332C13.9364 10.7914 15.5724 8.18152 16.5933 5.62723C17.0261 4.54424 18.36 4.03535 19.2877 4.74208C24.9064 9.02218 33.3332 17.2959 33.3332 24.9991C33.3332 26.955 33.0012 28.6081 32.4496 29.9987M9.10918 18.332C7.68872 20.7552 6.6665 23.0209 6.6665 24.9991C6.6665 30.1772 10.4091 33.8471 13.4689 35.6182C14.1699 36.024 14.8523 35.1775 14.4845 34.4558C13.6745 32.8667 12.8887 30.8144 12.8887 29.1657C12.8887 26.88 14.6303 25.0432 15.8742 23.8654C16.1932 23.5633 16.6932 23.568 16.9698 23.9094C17.4833 24.5432 17.9968 25.3454 18.5103 25.9949C18.8118 26.3761 19.3733 26.3423 19.6379 25.9346C21.2814 23.402 21.6625 20.1705 21.7509 17.7552C21.7776 17.0261 22.6309 16.668 23.12 17.2092C25.2597 19.5765 27.9998 23.4147 27.9998 26.6657C27.9998 29.6921 26.3037 32.9094 24.8363 35.0181C24.4062 35.6362 24.8788 36.4744 25.5978 36.2507C26.4555 35.9838 27.3774 35.5834 28.2753 35.0181" stroke="#4DA7FF" strokeWidth="1.5" strokeLinecap="round"/>
</svg>
