<svg width="41" height="40" viewBox="0 0 41 40" fill="none" xmlns="http://www.w3.org/2000/svg">
<g id="Broken / Map &#38; Location / Globus">
<path id="Vector" d="M37.166 16.1456C37.166 11.055 34.953 6.48129 31.4366 3.33398M7.16602 27.6045C10.3133 31.121 14.8871 33.334 19.9777 33.334C26.9042 33.334 32.8738 29.2369 35.5953 23.334" stroke="#4DA7FF" strokeWidth="1.5" strokeLinecap="round"/>
<path id="Vector_2" d="M12.166 7.58706C13.1413 8.5081 15.1505 11.0256 15.3845 13.7273C15.6033 16.2527 17.2106 18.3048 19.666 18.3326C20.6096 18.3432 21.5639 17.6363 21.5615 16.6577C21.5608 16.3551 21.5126 16.0457 21.4372 15.7611C21.3324 15.3651 21.3231 14.9097 21.541 14.4437C22.3034 12.8137 23.8028 12.3758 24.9908 11.4906C25.5178 11.098 25.9985 10.6838 26.2104 10.3502C26.7956 9.42915 27.3808 7.58706 27.0882 6.66602" stroke="#4DA7FF" strokeWidth="1.5"/>
<path id="Vector_3" d="M32.166 18.334C31.8001 19.3685 31.541 22.084 27.4085 22.1271C27.4085 22.1271 23.7489 22.1271 22.651 24.1961C21.7727 25.8512 22.285 27.6443 22.651 28.334" stroke="#4DA7FF" strokeWidth="1.5"/>
<path id="Vector_4" d="M20.5 36.6673V33.334" stroke="#4DA7FF" strokeWidth="1.5" strokeLinecap="round"/>
<path id="Vector_5" d="M20.4993 36.666H17.166" stroke="#4DA7FF" strokeWidth="1.5" strokeLinecap="round"/>
<path id="Vector_6" d="M23.8333 36.666H20.5" stroke="#4DA7FF" strokeWidth="1.5" strokeLinecap="round"/>
<path id="Vector_7" d="M10.3948 22.5C9.40212 20.784 8.83398 18.7917 8.83398 16.6667C8.83398 10.2233 14.0573 5 20.5007 5C26.944 5 32.1673 10.2233 32.1673 16.6667C32.1673 23.11 26.944 28.3333 20.5007 28.3333C18.3756 28.3333 16.3833 27.7652 14.6673 26.7725" stroke="#4DA7FF" strokeWidth="1.5" strokeLinecap="round"/>
</g>
</svg>
