<svg width="40" height="40" viewBox="0 0 40 40" fill="none" xmlns="http://www.w3.org/2000/svg">
<path d="M36.6668 36.666L3.3335 36.666" stroke="#4DA7FF" stroke-width="1.5" stroke-linecap="round"/>
<path d="M3.3335 18.3326L10.1051 12.9153M36.6668 18.3326L23.1236 7.498C21.2975 6.03713 18.7028 6.03713 16.8767 7.498L15.5735 8.54058" stroke="#4DA7FF" stroke-width="1.5" stroke-linecap="round"/>
<path d="M25.8335 9.16667V5.83333C25.8335 5.3731 26.2066 5 26.6668 5H30.8335C31.2937 5 31.6668 5.3731 31.6668 5.83333V14.1667" stroke="#4DA7FF" stroke-width="1.5" stroke-linecap="round"/>
<path d="M6.6665 36.6673V15.834" stroke="#4DA7FF" stroke-width="1.5" stroke-linecap="round"/>
<path d="M33.3335 15.8327V22.4993M33.3335 36.666V29.166" stroke="#4DA7FF" stroke-width="1.5" stroke-linecap="round"/>
<path d="M25 36.6673V28.334C25 25.977 25 24.7985 24.2678 24.0662C23.5355 23.334 22.357 23.334 20 23.334C17.643 23.334 16.4645 23.334 15.7322 24.0662M15 36.6673V28.334" stroke="#4DA7FF" stroke-width="1.5" stroke-linecap="round" stroke-linejoin="round"/>
<path d="M23.3332 15.8333C23.3332 17.6743 21.8408 19.1667 19.9998 19.1667C18.1589 19.1667 16.6665 17.6743 16.6665 15.8333C16.6665 13.9924 18.1589 12.5 19.9998 12.5C21.8408 12.5 23.3332 13.9924 23.3332 15.8333Z" stroke="#4DA7FF" stroke-width="1.5"/>
</svg>
