<svg width="41" height="40" viewBox="0 0 41 40" fill="none" xmlns="http://www.w3.org/2000/svg">
<path d="M37.1666 36.6667L3.83325 36.6667" stroke="#4DA7FF" stroke-width="1.5" stroke-linecap="round"/>
<path d="M3.83325 18.3333L10.6048 12.9161M37.1666 18.3333L23.6234 7.49878C21.7973 6.0379 19.2025 6.0379 17.3764 7.49878L16.0732 8.54135" stroke="#4DA7FF" stroke-width="1.5" stroke-linecap="round"/>
<path d="M26.3333 9.16667V5.83333C26.3333 5.3731 26.7063 5 27.1666 5H31.3333C31.7935 5 32.1666 5.3731 32.1666 5.83333V14.1667" stroke="#4DA7FF" stroke-width="1.5" stroke-linecap="round"/>
<path d="M7.16675 36.6667V15.8333" stroke="#4DA7FF" stroke-width="1.5" stroke-linecap="round"/>
<path d="M33.8333 15.8333V22.5M33.8333 36.6667V29.1667" stroke="#4DA7FF" stroke-width="1.5" stroke-linecap="round"/>
<path d="M25.5 36.6667V28.3333C25.5 25.9763 25.5 24.7978 24.7678 24.0656C24.0355 23.3333 22.857 23.3333 20.5 23.3333C18.143 23.3333 16.9645 23.3333 16.2322 24.0656M15.5 36.6667V28.3333" stroke="#4DA7FF" stroke-width="1.5" stroke-linecap="round" stroke-linejoin="round"/>
<path d="M23.8334 15.8333C23.8334 17.6743 22.341 19.1667 20.5001 19.1667C18.6591 19.1667 17.1667 17.6743 17.1667 15.8333C17.1667 13.9924 18.6591 12.5 20.5001 12.5C22.341 12.5 23.8334 13.9924 23.8334 15.8333Z" stroke="#4DA7FF" stroke-width="1.5"/>
</svg>
