<svg width="40" height="40" viewBox="0 0 40 40" fill="none" xmlns="http://www.w3.org/2000/svg">
<path d="M32.7458 25.8922V13.3327C32.7458 10.19 32.7458 8.61864 31.7694 7.64233C30.7931 6.66602 29.2218 6.66602 26.0791 6.66602H20.0007M32.7458 25.8922L35.6525 28.8924C35.7267 28.969 35.7639 29.0073 35.7985 29.0454C36.3336 29.633 36.6412 30.3924 36.6657 31.1867C36.6673 31.2382 36.6673 31.2916 36.6673 31.3982C36.6673 31.6469 36.6673 31.7712 36.6607 31.8762C36.5548 33.5516 35.2196 34.8869 33.5442 34.9927C33.4392 34.9994 33.3148 34.9994 33.0662 34.9994H6.93512C6.68645 34.9994 6.56212 34.9994 6.45712 34.9927C4.78173 34.8869 3.44648 33.5516 3.34062 31.8762C3.33398 31.7712 3.33398 31.6469 3.33398 31.3982C3.33398 31.2916 3.33398 31.2382 3.33558 31.1867C3.36014 30.3924 3.66769 29.633 4.20276 29.0454C4.23744 29.0073 4.27462 28.969 4.34878 28.8924L7.25555 25.8922M32.7458 25.8922H28.3935M7.25555 25.8922V13.3327C7.25555 10.19 7.25555 8.61864 8.23186 7.64233C9.20817 6.66602 10.7795 6.66602 13.9222 6.66602M7.25555 25.8922H21.6673" stroke="#4DA7FF" strokeWidth="1.5" strokeLinecap="round"/>
<path d="M15.834 30.834H24.1673" stroke="#4DA7FF" strokeWidth="1.5" strokeLinecap="round"/>
<path d="M21.25 11.25C21.25 11.9404 20.6904 12.5 20 12.5C19.3096 12.5 18.75 11.9404 18.75 11.25C18.75 10.5596 19.3096 10 20 10C20.6904 10 21.25 10.5596 21.25 11.25Z" fill="#4DA7FF"/>
</svg>
