<svg width="16" height="16" viewBox="0 0 16 16" fill="none" xmlns="http://www.w3.org/2000/svg">
<path d="M13.9834 8.12411L13.4908 8.03891V8.03891L13.9834 8.12411ZM13.5131 10.844L13.0204 10.7587V10.7587L13.5131 10.844ZM4.62518 13.652L4.12704 13.6951L4.62518 13.652ZM4.08374 7.39025L4.58188 7.34718L4.08374 7.39025ZM9.32997 3.4816L9.82339 3.56244V3.56244L9.32997 3.4816ZM8.88818 6.17797L9.38161 6.25882V6.25881L8.88818 6.17797ZM4.46543 6.45231L4.13903 6.07354L4.13903 6.07354L4.46543 6.45231ZM5.42459 5.62578L5.75098 6.00455L5.75098 6.00455L5.42459 5.62578ZM7.01204 3.18981L6.52805 3.06427V3.06427L7.01204 3.18981ZM7.32917 1.96724L7.81316 2.09279V2.09279L7.32917 1.96724ZM8.44506 1.37689L8.29214 1.85293L8.29214 1.85293L8.44506 1.37689ZM8.54171 1.40793L8.69464 0.931895L8.69464 0.931895L8.54171 1.40793ZM6.57463 4.30906L7.01566 4.54464L6.57463 4.30906ZM9.26979 2.16567L8.78581 2.29121V2.29121L9.26979 2.16567ZM7.7828 1.42225L7.56575 0.971815V0.971815L7.7828 1.42225ZM2.64773 14.3145L2.14959 14.3575L2.64773 14.3145ZM2 6.82345L2.49814 6.78038C2.47507 6.51362 2.24595 6.31237 1.97844 6.32392C1.71093 6.33546 1.5 6.55569 1.5 6.82345H2ZM13.4908 8.03891L13.0204 10.7587L14.0058 10.9292L14.4761 8.20931L13.4908 8.03891ZM8.82998 14.1673H5.7309V15.1673H8.82998V14.1673ZM5.12332 13.609L4.58188 7.34718L3.5856 7.43333L4.12704 13.6951L5.12332 13.609ZM13.0204 10.7587C12.6825 12.7125 10.9209 14.1673 8.82998 14.1673V15.1673C11.3808 15.1673 13.5805 13.388 14.0058 10.9292L13.0204 10.7587ZM8.83655 3.40075L8.39476 6.09713L9.38161 6.25881L9.82339 3.56244L8.83655 3.40075ZM4.79182 6.83108L5.75098 6.00455L5.09819 5.24701L4.13903 6.07354L4.79182 6.83108ZM7.49602 3.31536L7.81316 2.09279L6.84519 1.8417L6.52805 3.06427L7.49602 3.31536ZM8.29214 1.85293L8.38878 1.88397L8.69464 0.931895L8.59799 0.900848L8.29214 1.85293ZM7.01566 4.54464C7.22363 4.1553 7.38511 3.74291 7.49602 3.31536L6.52805 3.06427C6.43715 3.4147 6.30466 3.75327 6.13361 4.07348L7.01566 4.54464ZM8.38878 1.88397C8.59306 1.9496 8.73812 2.10738 8.78581 2.29121L9.75377 2.04012C9.6168 1.51211 9.21264 1.0983 8.69464 0.931895L8.38878 1.88397ZM7.81316 2.09279C7.8365 2.00279 7.9015 1.92007 7.99985 1.87268L7.56575 0.971815C7.21109 1.14271 6.94468 1.45816 6.84519 1.8417L7.81316 2.09279ZM7.99985 1.87268C8.08968 1.82939 8.19543 1.82186 8.29214 1.85293L8.59799 0.900848C8.25817 0.791681 7.88748 0.816783 7.56575 0.971815L7.99985 1.87268ZM9.43579 7.32345H12.8899V6.32345H9.43579V7.32345ZM3.14587 14.2714L2.49814 6.78038L1.50186 6.86652L2.14959 14.3575L3.14587 14.2714ZM2.5 14.3425V6.82345H1.5V14.3425H2.5ZM2.14959 14.3575C2.1408 14.2558 2.22097 14.1673 2.32447 14.1673V15.1673C2.80846 15.1673 3.18748 14.7526 3.14587 14.2714L2.14959 14.3575ZM9.82339 3.56244C9.90641 3.05569 9.8827 2.53716 9.75377 2.04012L8.78581 2.29121C8.87978 2.65347 8.89706 3.03141 8.83655 3.40075L9.82339 3.56244ZM5.7309 14.1673C5.41496 14.1673 5.15068 13.9253 5.12332 13.609L4.12704 13.6951C4.19901 14.5275 4.89513 15.1673 5.7309 15.1673V14.1673ZM5.75098 6.00455C6.20422 5.61399 6.69277 5.1491 7.01566 4.54464L6.13361 4.07348C5.90269 4.50576 5.535 4.8706 5.09819 5.24701L5.75098 6.00455ZM14.4761 8.20931C14.6463 7.22499 13.8894 6.32345 12.8899 6.32345V7.32345C13.2676 7.32345 13.5555 7.66459 13.4908 8.03891L14.4761 8.20931ZM2.32447 14.1673C2.42195 14.1673 2.5 14.2463 2.5 14.3425H1.5C1.5 14.7975 1.86859 15.1673 2.32447 15.1673V14.1673ZM8.39476 6.09713C8.28959 6.73903 8.78438 7.32345 9.43579 7.32345V6.32345C9.40254 6.32345 9.37595 6.29332 9.38161 6.25882L8.39476 6.09713ZM4.58188 7.34718C4.56493 7.1512 4.64317 6.95918 4.79182 6.83108L4.13903 6.07354C3.74681 6.41152 3.541 6.91751 3.5856 7.43333L4.58188 7.34718Z" fill="#4DA7FF"/>
</svg>
