<svg width="41" height="40" viewBox="0 0 41 40" fill="none" xmlns="http://www.w3.org/2000/svg">
<circle cx="20.5001" cy="20" r="3.33333" stroke="#4DA7FF" strokeWidth="1.5"/>
<path d="M10.5 20L17.1667 20" stroke="#4DA7FF" strokeWidth="1.5" strokeLinecap="round"/>
<path d="M23.8333 20L30.4999 20" stroke="#4DA7FF" strokeWidth="1.5" strokeLinecap="round"/>
<path d="M15.5 28.6603L18.8333 22.8868" stroke="#4DA7FF" strokeWidth="1.5" strokeLinecap="round"/>
<path d="M22.1665 17.1136L25.4998 11.3401" stroke="#4DA7FF" strokeWidth="1.5" strokeLinecap="round"/>
<path d="M25.5 28.6605L22.1667 22.887" stroke="#4DA7FF" strokeWidth="1.5" strokeLinecap="round"/>
<path d="M18.8333 17.1134L15.4999 11.3399" stroke="#4DA7FF" strokeWidth="1.5" strokeLinecap="round"/>
<path d="M12.1666 5.56303C14.618 4.14495 17.4642 3.33333 20.4999 3.33333C29.7047 3.33333 37.1666 10.7952 37.1666 20C37.1666 29.2047 29.7047 36.6667 20.4999 36.6667C11.2952 36.6667 3.83325 29.2047 3.83325 20C3.83325 16.9643 4.64487 14.1181 6.06295 11.6667" stroke="#4DA7FF" strokeWidth="1.5" strokeLinecap="round"/>
<path d="M25.5 28.6622C24.0291 29.513 22.3214 30 20.5 30C14.9772 30 10.5 25.5228 10.5 20C10.5 14.4772 14.9772 10 20.5 10C26.0228 10 30.5 14.4772 30.5 20C30.5 21.8214 30.013 23.5291 29.1622 25" stroke="#4DA7FF" strokeWidth="1.5" strokeLinecap="round"/>
</svg>
