<svg width="16" height="15" viewBox="0 0 16 15" fill="none" xmlns="http://www.w3.org/2000/svg">
<path d="M9.67906 2.48003L10.2815 1.87756C11.2797 0.879354 12.8982 0.879354 13.8964 1.87756C14.8946 2.87577 14.8946 4.49418 13.8964 5.49239L13.2939 6.09486M9.67906 2.48003C9.67906 2.48003 9.75437 3.76029 10.884 4.88992C12.0136 6.01955 13.2939 6.09486 13.2939 6.09486M9.67906 2.48003L8.14502 4.01408M13.2939 6.09486L9.87449 9.51427L7.85985 11.5289L7.75509 11.6337C7.37993 12.0088 7.19235 12.1964 6.98553 12.3577C6.74155 12.548 6.47757 12.7112 6.19825 12.8443C5.96147 12.9571 5.70981 13.041 5.20649 13.2088L3.07367 13.9197M3.07367 13.9197L2.55232 14.0935C2.30463 14.1761 2.03155 14.1116 1.84693 13.927C1.66231 13.7424 1.59785 13.4693 1.68041 13.2216L1.85419 12.7003M3.07367 13.9197L1.85419 12.7003M1.85419 12.7003L2.56513 10.5674C2.73291 10.0641 2.8168 9.81245 2.92964 9.57567C3.06276 9.29636 3.22591 9.03237 3.4162 8.7884C3.57752 8.58157 3.7651 8.394 4.14026 8.01884L5.87002 6.28908" stroke="#4DA7FF" stroke-width="1.5" stroke-linecap="round"/>
</svg>
