<svg width="40" height="40" viewBox="0 0 40 40" fill="none" xmlns="http://www.w3.org/2000/svg">
<path d="M28.7989 21.3062L28.249 20.7962L28.7989 21.3062ZM18.6941 11.2014L19.2041 11.7513L18.6941 11.2014ZM33.5967 9.10711L34.3403 9.20437L33.5967 9.10711ZM30.8931 6.40357L30.9904 7.14724L30.8931 6.40357ZM11.9232 21.08L12.5966 21.4101L11.9232 21.08ZM18.9203 28.0771L18.5901 27.4037L18.9203 28.0771ZM14.1721 17.7443C13.8792 17.4515 13.4043 17.4515 13.1114 17.7443C12.8185 18.0372 12.8185 18.5121 13.1114 18.805L14.1721 17.7443ZM21.1952 26.8888C21.4881 27.1817 21.963 27.1817 22.2559 26.8888C22.5488 26.596 22.5488 26.1211 22.2559 25.8282L21.1952 26.8888ZM11.6459 29.415C11.9387 29.1222 11.9387 28.6473 11.6459 28.3544C11.353 28.0615 10.8781 28.0615 10.5852 28.3544L11.6459 29.415ZM6.54327 32.3963C6.25038 32.6892 6.25038 33.1641 6.54327 33.457C6.83616 33.7499 7.31104 33.7499 7.60393 33.457L6.54327 32.3963ZM8.61441 26.3836C8.9073 26.0907 8.9073 25.6158 8.61441 25.3229C8.32152 25.0301 7.84664 25.0301 7.55375 25.3229L8.61441 26.3836ZM5.53279 27.3439C5.2399 27.6368 5.2399 28.1117 5.53279 28.4046C5.82568 28.6975 6.30056 28.6975 6.59345 28.4046L5.53279 27.3439ZM14.6773 32.4465C14.9702 32.1536 14.9702 31.6787 14.6773 31.3858C14.3844 31.0929 13.9095 31.0929 13.6166 31.3858L14.6773 32.4465ZM11.5957 33.4068C11.3028 33.6997 11.3028 34.1746 11.5957 34.4674C11.8886 34.7603 12.3634 34.7603 12.6563 34.4674L11.5957 33.4068ZM17.7847 33.1287L18.5272 33.0227L17.7847 33.1287ZM25.1612 28.1774L25.9037 28.0713L25.1612 28.1774ZM6.87148 22.2156L6.97754 21.4731L6.97754 21.4731L6.87148 22.2156ZM11.8228 14.8391L11.7168 15.5815L11.7168 15.5815L11.8228 14.8391ZM16.3484 26.9942L13.0061 23.6519L11.9454 24.7125L15.2877 28.0548L16.3484 26.9942ZM28.249 20.7962C25.4993 23.7608 21.0581 26.1937 18.5901 27.4037L19.2504 28.7505C21.7339 27.533 26.3961 24.9997 29.3488 21.8162L28.249 20.7962ZM12.5966 21.4101C13.8065 18.9421 16.2394 14.5009 19.2041 11.7513L18.1841 10.6515C15.0005 13.6041 12.4673 18.2663 11.2497 20.7498L12.5966 21.4101ZM32.853 9.00984C32.4178 12.3376 31.2555 17.5545 28.249 20.7962L29.3488 21.8162C32.6984 18.2046 33.9004 12.5678 34.3403 9.20437L32.853 9.00984ZM19.2041 11.7513C22.4458 8.7447 27.6626 7.58247 30.9904 7.14724L30.7959 5.65991C27.4324 6.0998 21.7957 7.30181 18.1841 10.6515L19.2041 11.7513ZM34.3403 9.20437C34.6146 7.10765 32.8926 5.38568 30.7959 5.65991L30.9904 7.14724C32.1102 7.00079 32.9995 7.89004 32.853 9.00984L34.3403 9.20437ZM13.0061 23.6519C12.396 23.0418 12.2346 22.1486 12.5966 21.4101L11.2497 20.7498C10.5878 22.0999 10.9107 23.6778 11.9454 24.7125L13.0061 23.6519ZM15.2877 28.0548C16.3224 29.0895 17.9003 29.4124 19.2504 28.7505L18.5901 27.4037C17.8517 27.7657 16.9585 27.6042 16.3484 26.9942L15.2877 28.0548ZM13.1114 18.805L21.1952 26.8888L22.2559 25.8282L14.1721 17.7443L13.1114 18.805ZM10.5852 28.3544L6.54327 32.3963L7.60393 33.457L11.6459 29.415L10.5852 28.3544ZM7.55375 25.3229L5.53279 27.3439L6.59345 28.4046L8.61441 26.3836L7.55375 25.3229ZM13.6166 31.3858L11.5957 33.4068L12.6563 34.4674L14.6773 32.4465L13.6166 31.3858ZM21.7005 13.1972C20.2914 14.6062 20.2914 16.8907 21.7005 18.2998L22.7611 17.2391C21.9379 16.4159 21.9379 15.0811 22.7611 14.2578L21.7005 13.1972ZM21.7005 18.2998C23.1095 19.7088 25.394 19.7088 26.8031 18.2998L25.7424 17.2391C24.9191 18.0624 23.5844 18.0624 22.7611 17.2391L21.7005 18.2998ZM26.8031 18.2998C28.2121 16.8907 28.2121 14.6062 26.8031 13.1972L25.7424 14.2578C26.5656 15.0811 26.5656 16.4159 25.7424 17.2391L26.8031 18.2998ZM26.8031 13.1972C25.394 11.7881 23.1095 11.7881 21.7005 13.1972L22.7611 14.2578C23.5844 13.4346 24.9191 13.4346 25.7424 14.2578L26.8031 13.1972ZM24.2267 28.8596L19.6795 33.4068L20.7402 34.4674L25.2873 29.9203L24.2267 28.8596ZM18.5272 33.0227L17.9209 28.7787L16.4359 28.9908L17.0422 33.2348L18.5272 33.0227ZM24.0145 25.4541L24.4187 28.2834L25.9037 28.0713L25.4995 25.242L24.0145 25.4541ZM19.6795 33.4068C19.2838 33.8025 18.6063 33.5766 18.5272 33.0227L17.0422 33.2348C17.2962 35.0124 19.4705 35.7371 20.7402 34.4674L19.6795 33.4068ZM25.2873 29.9203C25.7723 29.4353 26.0007 28.7503 25.9037 28.0713L24.4187 28.2834C24.449 28.495 24.3778 28.7085 24.2267 28.8596L25.2873 29.9203ZM10.0799 14.7129L5.53276 19.2601L6.59342 20.3208L11.1406 15.7736L10.0799 14.7129ZM6.76541 22.958L11.0094 23.5643L11.2216 22.0794L6.97754 21.4731L6.76541 22.958ZM14.7582 14.5008L11.9289 14.0966L11.7168 15.5815L14.5461 15.9857L14.7582 14.5008ZM5.53276 19.2601C4.26306 20.5298 4.98783 22.7041 6.76541 22.958L6.97754 21.4731C6.42361 21.394 6.19776 20.7164 6.59342 20.3208L5.53276 19.2601ZM11.1406 15.7736C11.2917 15.6225 11.5052 15.5513 11.7168 15.5815L11.9289 14.0966C11.2499 13.9996 10.5649 14.228 10.0799 14.7129L11.1406 15.7736Z" fill="#4DA7FF"/>
</svg>
