<svg width="41" height="40" viewBox="0 0 41 40" fill="none" xmlns="http://www.w3.org/2000/svg">
<path d="M18.834 26.6667V24.1667C18.834 21.024 18.834 19.4526 17.8577 18.4763C16.8814 17.5 15.31 17.5 12.1673 17.5H11.1673C10.5483 17.5 10.2387 17.5 9.97759 17.5206C9.24043 17.5786 8.53747 17.7555 7.88782 18.0323M18.834 26.6667H27.1673M18.834 26.6667H5.66732C5.51255 26.6667 5.43517 26.6667 5.36989 26.6615C4.55259 26.5972 3.90344 25.9481 3.83912 25.1308C3.83398 25.0655 3.83398 24.9881 3.83398 24.8333C3.83398 24.2143 3.83398 23.9047 3.85454 23.6436C3.90147 23.0473 4.02623 22.4733 4.21872 21.9319" stroke="#4DA7FF" stroke-width="1.5" stroke-linecap="round"/>
<path d="M16.334 26.666C16.334 29.4274 14.0954 31.666 11.334 31.666C8.57256 31.666 6.33398 29.4274 6.33398 26.666" stroke="#4DA7FF" stroke-width="1.5" stroke-linecap="round"/>
<path d="M20.5 8.33398H21.3798C23.3845 8.33398 24.3868 8.33398 25.1923 8.83182C25.9978 9.32965 26.4461 10.2262 27.3426 12.0192L32.1667 21.6673" stroke="#4DA7FF" stroke-width="1.5" stroke-linecap="round"/>
<path d="M30.7376 18.3333L31.8738 17.4963C32.3119 17.1736 32.531 17.0122 32.6833 16.8018C32.787 16.6587 32.8672 16.4999 32.921 16.3315C33 16.0841 33 15.812 33 15.2679C33 14.2388 33 13.7243 32.7806 13.3401C32.6329 13.0815 32.4185 12.8671 32.1599 12.7194C31.7757 12.5 31.2612 12.5 30.2321 12.5H28" stroke="#4DA7FF" stroke-width="1.5" stroke-linecap="round"/>
<path d="M30.4993 31.3815C31.0206 31.5658 31.5816 31.666 32.166 31.666C34.9274 31.666 37.166 29.4274 37.166 26.666C37.166 23.9046 34.9274 21.666 32.166 21.666C29.4046 21.666 27.166 23.9046 27.166 26.666C27.166 27.2504 27.2663 27.8114 27.4505 28.3327" stroke="#4DA7FF" stroke-width="1.5" stroke-linecap="round"/>
</svg>
