<svg width="40" height="40" viewBox="0 0 40 40" fill="none" xmlns="http://www.w3.org/2000/svg">
<path d="M15.8335 20.666L18.2144 23.3327L24.1668 16.666" stroke="#4DA7FF" stroke-width="1.5" stroke-linecap="round" stroke-linejoin="round"/>
<path d="M5 17.3617C5 12.0324 5 9.36778 5.62919 8.47133C6.25839 7.57488 8.76387 6.71725 13.7749 5.00197L14.7295 4.67518C17.3416 3.78105 18.6477 3.33398 20 3.33398C21.3523 3.33398 22.6584 3.78105 25.2705 4.67518L26.2251 5.00197C31.2361 6.71725 33.7416 7.57488 34.3708 8.47133C35 9.36778 35 12.0324 35 17.3617C35 18.1667 35 19.0397 35 19.9862C35 24.1612 33.6054 27.3814 31.6667 29.8409M5.3214 23.334C6.75043 30.498 12.6274 34.1888 16.4976 35.8794C17.7 36.4047 18.3012 36.6673 20 36.6673C21.6988 36.6673 22.3 36.4047 23.5024 35.8794C24.466 35.4585 25.5539 34.9136 26.6667 34.222" stroke="#4DA7FF" stroke-width="1.5" stroke-linecap="round"/>
</svg>
