<svg width="14" height="15" viewBox="0 0 14 15" fill="none" xmlns="http://www.w3.org/2000/svg">
<path d="M5.25 9.69531C5.74605 10.063 6.34933 10.2786 7 10.2786C7.65067 10.2786 8.25395 10.063 8.75 9.69531" stroke="#B4B4B4" strokeLinecap="round"/>
<path d="M9.33317 6.4873C9.33317 6.97055 9.072 7.3623 8.74984 7.3623C8.42767 7.3623 8.1665 6.97055 8.1665 6.4873C8.1665 6.00406 8.42767 5.6123 8.74984 5.6123C9.072 5.6123 9.33317 6.00406 9.33317 6.4873Z" fill="#B4B4B4"/>
<ellipse cx="5.24984" cy="6.4873" rx="0.583333" ry="0.875" fill="#B4B4B4"/>
<path d="M4.08317 2.30969C4.94118 1.81336 5.93733 1.5293 6.99984 1.5293C10.2215 1.5293 12.8332 4.14097 12.8332 7.36263C12.8332 10.5843 10.2215 13.196 6.99984 13.196C3.77818 13.196 1.1665 10.5843 1.1665 7.36263C1.1665 6.30013 1.45057 5.30397 1.9469 4.44596" stroke="#B4B4B4" strokeLinecap="round"/>
</svg>
