<svg width="40" height="40" viewBox="0 0 40 40" fill="none" xmlns="http://www.w3.org/2000/svg">
<path d="M3.33398 20L8.33398 20" stroke="#4DA7FF" strokeWidth="1.5" strokeLinecap="round"/>
<path d="M31.666 20L36.666 20" stroke="#4DA7FF" strokeWidth="1.5" strokeLinecap="round"/>
<path d="M20 36.666L20 31.666" stroke="#4DA7FF" strokeWidth="1.5" strokeLinecap="round"/>
<path d="M20 8.33398L20 3.33398" stroke="#4DA7FF" strokeWidth="1.5" strokeLinecap="round"/>
<path d="M16.666 20H19.9993H23.3327" stroke="#4DA7FF" strokeWidth="1.5" strokeLinecap="round" stroke-linejoin="round"/>
<path d="M20 23.334L20 20.0007L20 16.6673" stroke="#4DA7FF" strokeWidth="1.5" strokeLinecap="round" stroke-linejoin="round"/>
<path d="M11.6673 5.56369C14.1188 4.1456 16.9649 3.33398 20.0007 3.33398C29.2054 3.33398 36.6673 10.7959 36.6673 20.0007C36.6673 29.2054 29.2054 36.6673 20.0007 36.6673C10.7959 36.6673 3.33398 29.2054 3.33398 20.0007C3.33398 16.9649 4.1456 14.1188 5.56369 11.6673" stroke="#4DA7FF" strokeWidth="1.5" strokeLinecap="round"/>
</svg>
