<svg width="40" height="40" viewBox="0 0 40 40" fill="none" xmlns="http://www.w3.org/2000/svg">
<path d="M14.166 20.834L17.4993 24.1673L25.8327 15.834" stroke="#4DA7FF" stroke-width="1.5" stroke-linecap="round" stroke-linejoin="round"/>
<path d="M5.04797 21.7964C4.50484 20.66 4.50484 19.339 5.04797 18.2027C5.28279 17.7114 5.68323 17.2415 6.48411 16.3017C6.80286 15.9277 6.96224 15.7407 7.09611 15.5409C7.40299 15.0831 7.61597 14.5689 7.72273 14.0281C7.7693 13.7922 7.78885 13.5473 7.82794 13.0574C7.92617 11.8266 7.97528 11.2112 8.15663 10.6977C8.57609 9.51018 9.51018 8.57609 10.6977 8.15663C11.2112 7.97528 11.8266 7.92617 13.0574 7.82794C13.5473 7.78885 13.7922 7.7693 14.0281 7.72273C14.5689 7.61597 15.0831 7.40299 15.5409 7.09611C15.7407 6.96224 15.9277 6.80286 16.3017 6.48411C17.2415 5.68323 17.7114 5.28279 18.2027 5.04797C19.339 4.50484 20.66 4.50484 21.7964 5.04797C22.2877 5.28279 22.7575 5.68323 23.6973 6.48411C24.0714 6.80286 24.2584 6.96224 24.4581 7.09611C24.916 7.40299 25.4302 7.61597 25.9709 7.72273C26.2068 7.7693 26.4518 7.78885 26.9416 7.82794C28.1725 7.92617 28.7879 7.97528 29.3013 8.15663C30.4889 8.57609 31.423 9.51018 31.8424 10.6977M8.15663 29.3013C8.57609 30.4889 9.51018 31.423 10.6977 31.8424C11.2112 32.0238 11.8266 32.0729 13.0574 32.1711C13.5473 32.2102 13.7922 32.2298 14.0281 32.2763C14.5689 32.3831 15.0831 32.5961 15.5409 32.903C15.7407 33.0368 15.9277 33.1962 16.3017 33.515C17.2415 34.3158 17.7114 34.7163 18.2027 34.9511C19.339 35.4942 20.66 35.4942 21.7964 34.9511C22.2877 34.7163 22.7575 34.3158 23.6973 33.515C24.0714 33.1962 24.2584 33.0368 24.4581 32.903C24.916 32.5961 25.4302 32.3831 25.9709 32.2763C26.2068 32.2298 26.4518 32.2102 26.9416 32.1711C28.1725 32.0729 28.7879 32.0238 29.3013 31.8424C30.4889 31.423 31.423 30.4889 31.8424 29.3013C32.0238 28.7879 32.0729 28.1725 32.1711 26.9416C32.2102 26.4518 32.2298 26.2068 32.2763 25.9709C32.3831 25.4302 32.5961 24.916 32.903 24.4581C33.0368 24.2584 33.1962 24.0714 33.515 23.6973C34.3158 22.7575 34.7163 22.2877 34.9511 21.7964C35.4942 20.66 35.4942 19.339 34.9511 18.2027" stroke="#4DA7FF" stroke-width="1.5" stroke-linecap="round"/>
</svg>
