<svg width="41" height="40" viewBox="0 0 41 40" fill="none" xmlns="http://www.w3.org/2000/svg">
<path d="M10.5 16.6667H17.1667" stroke="#4DA7FF" strokeWidth="1.5" strokeLinecap="round" stroke-linejoin="round"/>
<path d="M37.1628 20.8333C37.1628 20.7044 37.1667 19.9454 37.1628 19.891C37.1039 19.0564 36.388 18.3916 35.4892 18.3369C35.4306 18.3333 35.3611 18.3333 35.2222 18.3333H30.8846C27.9108 18.3333 25.5 20.5719 25.5 23.3333C25.5 26.0948 27.9108 28.3333 30.8846 28.3333H35.2222C35.3611 28.3333 35.4306 28.3333 35.4892 28.3298C36.388 28.2751 37.1039 27.6103 37.1628 26.7757C37.1667 26.7212 37.1667 25.9623 37.1667 25.8333" stroke="#4DA7FF" strokeWidth="1.5" strokeLinecap="round"/>
<circle cx="30.4999" cy="23.3333" r="1.66667" fill="#4DA7FF"/>
<path d="M17.1666 36.6667H22.1666C28.452 36.6667 31.5947 36.6667 33.5473 34.714C34.8943 33.3671 35.3121 31.4538 35.4416 28.3333M35.4416 18.3333C35.3121 15.2128 34.8943 13.2996 33.5473 11.9526C31.5947 10 28.452 10 22.1666 10H17.1666C10.8812 10 7.73849 10 5.78587 11.9526C3.83325 13.9052 3.83325 17.0479 3.83325 23.3333C3.83325 29.6187 3.83325 32.7614 5.78587 34.714C6.87451 35.8027 8.33306 36.2844 10.4999 36.4975" stroke="#4DA7FF" strokeWidth="1.5" strokeLinecap="round"/>
<path d="M10.5 10L16.7258 5.87189C18.4791 4.70937 20.8543 4.70937 22.6075 5.87189L28.8333 10" stroke="#4DA7FF" strokeWidth="1.5" strokeLinecap="round"/>
</svg>
