<svg width="40" height="40" viewBox="0 0 40 40" fill="none" xmlns="http://www.w3.org/2000/svg">
<path d="M3.33398 27.584C2.91977 27.584 2.58398 27.9198 2.58398 28.334C2.58398 28.7482 2.91977 29.084 3.33398 29.084V27.584ZM9.33875 29.084C9.75296 29.084 10.0887 28.7482 10.0887 28.334C10.0887 27.9198 9.75296 27.584 9.33875 27.584V29.084ZM17.9137 23.4789L17.2706 23.0931L17.9137 23.4789ZM22.0876 16.5224L22.7307 16.9082L22.0876 16.5224ZM36.6673 11.6673L37.1976 12.1976C37.4905 11.9048 37.4905 11.4299 37.1976 11.137L36.6673 11.6673ZM32.8037 14.4703C32.5108 14.7632 32.5108 15.2381 32.8037 15.531C33.0965 15.8239 33.5714 15.8239 33.8643 15.531L32.8037 14.4703ZM33.8643 7.80365C33.5714 7.51076 33.0965 7.51076 32.8037 7.80365C32.5108 8.09655 32.5108 8.57142 32.8037 8.86431L33.8643 7.80365ZM25.3681 12.3163L24.9986 11.6637V11.6637L25.3681 12.3163ZM14.8759 26.5786C14.5732 26.8614 14.5571 27.336 14.8399 27.6386C15.1227 27.9413 15.5973 27.9574 15.8999 27.6746L14.8759 26.5786ZM3.33398 29.084H9.33875V27.584H3.33398V29.084ZM18.5568 23.8648L22.7307 16.9082L21.4445 16.1365L17.2706 23.0931L18.5568 23.8648ZM30.6626 12.4173H36.6673V10.9173H30.6626V12.4173ZM36.137 11.137L32.8037 14.4703L33.8643 15.531L37.1976 12.1976L36.137 11.137ZM37.1976 11.137L33.8643 7.80365L32.8037 8.86431L36.137 12.1976L37.1976 11.137ZM22.7307 16.9082C23.4495 15.7102 23.962 14.8577 24.4343 14.2197C24.897 13.5948 25.2876 13.2238 25.7376 12.969L24.9986 11.6637C24.3024 12.0578 23.7641 12.6042 23.2288 13.3272C22.7032 14.0371 22.1485 14.9631 21.4445 16.1365L22.7307 16.9082ZM30.6626 10.9173C29.2942 10.9173 28.2148 10.9165 27.3356 11.002C26.4402 11.089 25.6948 11.2695 24.9986 11.6637L25.7376 12.969C26.1877 12.7141 26.7068 12.5701 27.4807 12.4949C28.2708 12.4181 29.2655 12.4173 30.6626 12.4173V10.9173ZM17.2706 23.0931C16.1589 24.9458 15.5474 25.9511 14.8759 26.5786L15.8999 27.6746C16.7631 26.8681 17.4951 25.6344 18.5568 23.8648L17.2706 23.0931Z" fill="#4DA7FF"/>
<path d="M3.33398 10.916C2.91977 10.916 2.58398 11.2518 2.58398 11.666C2.58398 12.0802 2.91977 12.416 3.33398 12.416V10.916ZM36.6673 28.3327L37.1976 28.863C37.4905 28.5701 37.4905 28.0952 37.1976 27.8024L36.6673 28.3327ZM33.8643 24.469C33.5714 24.1761 33.0965 24.1761 32.8037 24.469C32.5108 24.7619 32.5108 25.2368 32.8037 25.5297L33.8643 24.469ZM32.8037 31.1357C32.5108 31.4286 32.5108 31.9035 32.8037 32.1963C33.0965 32.4892 33.5714 32.4892 33.8643 32.1963L32.8037 31.1357ZM26.8763 28.2406L27.0196 27.5044L26.8763 28.2406ZM23.6438 24.6135C23.4307 24.2583 22.97 24.1431 22.6148 24.3562C22.2596 24.5693 22.1444 25.03 22.3575 25.3852L23.6438 24.6135ZM24.1146 26.6769L24.6722 26.1753L24.1146 26.6769ZM13.125 11.7581L13.2683 11.0219L13.125 11.7581ZM16.3575 15.3852C16.5706 15.7404 17.0313 15.8556 17.3865 15.6425C17.7417 15.4294 17.8569 14.9687 17.6438 14.6135L16.3575 15.3852ZM15.8867 13.3218L15.3291 13.8234L15.8867 13.3218ZM3.33398 12.416H11.1133V10.916H3.33398V12.416ZM28.888 29.0827H36.6673V27.5827H28.888V29.0827ZM37.1976 27.8024L33.8643 24.469L32.8037 25.5297L36.137 28.863L37.1976 27.8024ZM36.137 27.8024L32.8037 31.1357L33.8643 32.1963L37.1976 28.863L36.137 27.8024ZM28.888 27.5827C27.832 27.5827 27.405 27.5794 27.0196 27.5044L26.733 28.9768C27.294 29.086 27.8927 29.0827 28.888 29.0827V27.5827ZM22.3575 25.3852C22.8696 26.2387 23.1748 26.7537 23.5571 27.1786L24.6722 26.1753C24.4096 25.8834 24.187 25.5189 23.6438 24.6135L22.3575 25.3852ZM27.0196 27.5044C26.1136 27.328 25.2895 26.8615 24.6722 26.1753L23.5571 27.1786C24.3923 28.107 25.5072 28.7382 26.733 28.9768L27.0196 27.5044ZM11.1133 12.416C12.1693 12.416 12.5963 12.4193 12.9817 12.4943L13.2683 11.0219C12.7073 10.9127 12.1086 10.916 11.1133 10.916V12.416ZM17.6438 14.6135C17.1317 13.76 16.8265 13.245 16.4442 12.8201L15.3291 13.8234C15.5918 14.1153 15.8143 14.4798 16.3575 15.3852L17.6438 14.6135ZM12.9817 12.4943C13.8877 12.6707 14.7118 13.1372 15.3291 13.8234L16.4442 12.8201C15.609 11.8917 14.4941 11.2605 13.2683 11.0219L12.9817 12.4943Z" fill="#4DA7FF"/>
</svg>
