<svg width="40" height="40" viewBox="0 0 40 40" fill="none" xmlns="http://www.w3.org/2000/svg">
<path d="M35 20.0007C35 29.2054 31.6421 36.6673 27.5 36.6673M27.5 3.33398C30.5755 3.33398 33.2186 7.44763 34.3759 13.334" stroke="#4DA7FF" stroke-width="1.5" stroke-linecap="round"/>
<path d="M5 20.0007C5 10.7959 8.35786 3.33398 12.5 3.33398C16.6421 3.33398 20 10.7959 20 20.0007C20 29.2054 16.6421 36.6673 12.5 36.6673C9.42452 36.6673 6.7814 32.5537 5.62407 26.6673" stroke="#4DA7FF" stroke-width="1.5" stroke-linecap="round"/>
<path d="M12.5 36.6673C16.6421 36.6673 20 29.2054 20 20.0007C20 10.7959 16.6421 3.33398 12.5 3.33398" stroke="#4DA7FF" stroke-width="1.5"/>
<path d="M15 20C15 25.5228 13.8807 30 12.5 30C11.1193 30 10 25.5228 10 20C10 14.4772 11.1193 10 12.5 10C13.8807 10 15 14.4772 15 20Z" stroke="#4DA7FF" stroke-width="1.5"/>
<path d="M12.5 3.33398L27.5 3.33398" stroke="#4DA7FF" stroke-width="1.5"/>
<path d="M12.5 36.666H27.5" stroke="#4DA7FF" stroke-width="1.5"/>
<path d="M15.0002 20H13.3335" stroke="#4DA7FF" stroke-width="1.5" stroke-linecap="round"/>
</svg>
