<svg width="41" height="40" viewBox="0 0 41 40" fill="none" xmlns="http://www.w3.org/2000/svg">
<path d="M10.3147 5.75C10.7289 5.75 11.0647 5.41421 11.0647 5C11.0647 4.58579 10.7289 4.25 10.3147 4.25V5.75ZM17.1666 4.25C16.7524 4.25 16.4166 4.58579 16.4166 5C16.4166 5.41421 16.7524 5.75 17.1666 5.75V4.25ZM30.6851 5.75C33.8272 5.75 36.4166 8.39047 36.4166 11.7006H37.9166C37.9166 7.60945 34.7023 4.25 30.6851 4.25V5.75ZM10.3147 4.25C6.29759 4.25 3.08325 7.60944 3.08325 11.7006H4.58325C4.58325 8.39047 7.17263 5.75 10.3147 5.75V4.25ZM36.4166 11.7006C36.4166 14.7178 34.2614 17.1833 31.5013 17.5914L31.7207 19.0753C35.2427 18.5545 37.9166 15.4347 37.9166 11.7006H36.4166ZM9.49852 17.5914C6.73841 17.1833 4.58325 14.7178 4.58325 11.7006H3.08325C3.08325 15.4347 5.75718 18.5545 9.2791 19.0753L9.49852 17.5914ZM17.1666 5.75H30.6851V4.25H17.1666V5.75Z" fill="#4DA7FF"/>
<path d="M20.5001 15V23.3333M20.5001 23.3333L23.8334 19.4444M20.5001 23.3333L17.1667 19.4444" stroke="#4DA7FF" strokeWidth="1.5" strokeLinecap="round" stroke-linejoin="round"/>
<path d="M8.83325 16.6667C8.83325 13.524 8.83325 11.9526 9.80956 10.9763C10.7859 10 12.3572 10 15.4999 10H25.4999C28.6426 10 30.214 10 31.1903 10.9763C32.1666 11.9526 32.1666 13.524 32.1666 16.6667V26.6667C32.1666 29.8094 32.1666 31.3807 31.1903 32.357C30.214 33.3333 28.6426 33.3333 25.4999 33.3333H15.4999C12.3572 33.3333 10.7859 33.3333 9.80956 32.357C8.83325 31.3807 8.83325 29.8094 8.83325 26.6667V16.6667Z" stroke="#4DA7FF" strokeWidth="1.5"/>
<path d="M8.83325 28.3333H22.1666M32.1666 28.3333H28.8333" stroke="#4DA7FF" strokeWidth="1.5" strokeLinecap="round" stroke-linejoin="round"/>
</svg>
