<svg width="556" height="33" viewBox="0 0 556 33" fill="none" xmlns="http://www.w3.org/2000/svg">
<path d="M1.02 9V0.48H2.1V8.04H5.292V0.48H6.372V8.04H9.564V0.48H10.644V9H1.02ZM12.0202 7.188C12.0202 6.788 12.1322 6.444 12.3562 6.156C12.5882 5.86 12.9042 5.632 13.3042 5.472C13.7042 5.312 14.1682 5.232 14.6962 5.232C14.9762 5.232 15.2722 5.256 15.5842 5.304C15.8962 5.344 16.1722 5.408 16.4122 5.496V5.04C16.4122 4.56 16.2682 4.184 15.9802 3.912C15.6922 3.632 15.2842 3.492 14.7562 3.492C14.4122 3.492 14.0802 3.556 13.7602 3.684C13.4482 3.804 13.1162 3.98 12.7642 4.212L12.3802 3.468C12.7882 3.188 13.1962 2.98 13.6042 2.844C14.0122 2.7 14.4362 2.628 14.8762 2.628C15.6762 2.628 16.3082 2.852 16.7722 3.3C17.2362 3.74 17.4682 4.356 17.4682 5.148V7.8C17.4682 7.928 17.4922 8.024 17.5402 8.088C17.5962 8.144 17.6842 8.176 17.8042 8.184V9C17.7002 9.016 17.6082 9.028 17.5282 9.036C17.4562 9.044 17.3962 9.048 17.3482 9.048C17.1002 9.048 16.9122 8.98 16.7842 8.844C16.6642 8.708 16.5962 8.564 16.5802 8.412L16.5562 8.016C16.2842 8.368 15.9282 8.64 15.4882 8.832C15.0482 9.024 14.6122 9.12 14.1802 9.12C13.7642 9.12 13.3922 9.036 13.0642 8.868C12.7362 8.692 12.4802 8.46 12.2962 8.172C12.1122 7.876 12.0202 7.548 12.0202 7.188ZM16.1002 7.632C16.1962 7.52 16.2722 7.408 16.3282 7.296C16.3842 7.176 16.4122 7.076 16.4122 6.996V6.216C16.1642 6.12 15.9042 6.048 15.6322 6C15.3602 5.944 15.0922 5.916 14.8282 5.916C14.2922 5.916 13.8562 6.024 13.5202 6.24C13.1922 6.448 13.0282 6.736 13.0282 7.104C13.0282 7.304 13.0802 7.5 13.1842 7.692C13.2962 7.876 13.4562 8.028 13.6642 8.148C13.8802 8.268 14.1442 8.328 14.4562 8.328C14.7842 8.328 15.0962 8.264 15.3922 8.136C15.6882 8 15.9242 7.832 16.1002 7.632ZM19.1447 9V2.736H23.0087V3.672H20.2007V9H19.1447ZM31.3854 8.04V9H27.0774V8.04H28.7814V3.36C28.7094 3.456 28.5974 3.56 28.4454 3.672C28.2934 3.776 28.1214 3.876 27.9294 3.972C27.7374 4.068 27.5454 4.148 27.3534 4.212C27.1614 4.268 26.9854 4.296 26.8254 4.296V3.288C27.0014 3.288 27.1934 3.24 27.4014 3.144C27.6174 3.04 27.8254 2.92 28.0254 2.784C28.2254 2.648 28.3934 2.52 28.5294 2.4C28.6734 2.28 28.7574 2.196 28.7814 2.148H29.8614V8.04H31.3854Z" fill="#4DA7FF"/>
<path d="M177.02 9V0.48H178.1V8.04H181.292V0.48H182.372V8.04H185.564V0.48H186.644V9H177.02ZM188.02 7.188C188.02 6.788 188.132 6.444 188.356 6.156C188.588 5.86 188.904 5.632 189.304 5.472C189.704 5.312 190.168 5.232 190.696 5.232C190.976 5.232 191.272 5.256 191.584 5.304C191.896 5.344 192.172 5.408 192.412 5.496V5.04C192.412 4.56 192.268 4.184 191.98 3.912C191.692 3.632 191.284 3.492 190.756 3.492C190.412 3.492 190.08 3.556 189.76 3.684C189.448 3.804 189.116 3.98 188.764 4.212L188.38 3.468C188.788 3.188 189.196 2.98 189.604 2.844C190.012 2.7 190.436 2.628 190.876 2.628C191.676 2.628 192.308 2.852 192.772 3.3C193.236 3.74 193.468 4.356 193.468 5.148V7.8C193.468 7.928 193.492 8.024 193.54 8.088C193.596 8.144 193.684 8.176 193.804 8.184V9C193.7 9.016 193.608 9.028 193.528 9.036C193.456 9.044 193.396 9.048 193.348 9.048C193.1 9.048 192.912 8.98 192.784 8.844C192.664 8.708 192.596 8.564 192.58 8.412L192.556 8.016C192.284 8.368 191.928 8.64 191.488 8.832C191.048 9.024 190.612 9.12 190.18 9.12C189.764 9.12 189.392 9.036 189.064 8.868C188.736 8.692 188.48 8.46 188.296 8.172C188.112 7.876 188.02 7.548 188.02 7.188ZM192.1 7.632C192.196 7.52 192.272 7.408 192.328 7.296C192.384 7.176 192.412 7.076 192.412 6.996V6.216C192.164 6.12 191.904 6.048 191.632 6C191.36 5.944 191.092 5.916 190.828 5.916C190.292 5.916 189.856 6.024 189.52 6.24C189.192 6.448 189.028 6.736 189.028 7.104C189.028 7.304 189.08 7.5 189.184 7.692C189.296 7.876 189.456 8.028 189.664 8.148C189.88 8.268 190.144 8.328 190.456 8.328C190.784 8.328 191.096 8.264 191.392 8.136C191.688 8 191.924 7.832 192.1 7.632ZM195.145 9V2.736H199.009V3.672H196.201V9H195.145ZM202.789 9C202.789 8.68 202.813 8.38 202.861 8.1C202.917 7.82 203.013 7.552 203.149 7.296C203.293 7.04 203.493 6.796 203.749 6.564C204.005 6.324 204.337 6.092 204.745 5.868C204.985 5.732 205.225 5.604 205.465 5.484C205.713 5.364 205.941 5.236 206.149 5.1C206.365 4.964 206.537 4.816 206.665 4.656C206.793 4.488 206.857 4.296 206.857 4.08C206.857 3.896 206.801 3.72 206.689 3.552C206.585 3.376 206.425 3.236 206.209 3.132C206.001 3.02 205.741 2.964 205.429 2.964C205.189 2.964 204.969 2.996 204.769 3.06C204.577 3.124 204.401 3.208 204.241 3.312C204.089 3.408 203.953 3.512 203.833 3.624C203.721 3.728 203.625 3.824 203.545 3.912L202.885 3.168C202.949 3.096 203.057 3 203.209 2.88C203.361 2.752 203.553 2.624 203.785 2.496C204.017 2.368 204.285 2.26 204.589 2.172C204.901 2.076 205.241 2.028 205.609 2.028C206.105 2.028 206.529 2.116 206.881 2.292C207.241 2.46 207.517 2.692 207.709 2.988C207.901 3.276 207.997 3.6 207.997 3.96C207.997 4.272 207.929 4.544 207.793 4.776C207.665 5.008 207.497 5.212 207.289 5.388C207.089 5.564 206.877 5.716 206.653 5.844C206.437 5.964 206.241 6.068 206.065 6.156C205.705 6.332 205.397 6.492 205.141 6.636C204.885 6.78 204.673 6.924 204.505 7.068C204.345 7.204 204.213 7.348 204.109 7.5C204.013 7.652 203.941 7.832 203.893 8.04H208.129V9H202.789Z" fill="#4DA7FF"/>
<path d="M353.02 9V0.48H354.1V8.04H357.292V0.48H358.372V8.04H361.564V0.48H362.644V9H353.02ZM364.02 7.188C364.02 6.788 364.132 6.444 364.356 6.156C364.588 5.86 364.904 5.632 365.304 5.472C365.704 5.312 366.168 5.232 366.696 5.232C366.976 5.232 367.272 5.256 367.584 5.304C367.896 5.344 368.172 5.408 368.412 5.496V5.04C368.412 4.56 368.268 4.184 367.98 3.912C367.692 3.632 367.284 3.492 366.756 3.492C366.412 3.492 366.08 3.556 365.76 3.684C365.448 3.804 365.116 3.98 364.764 4.212L364.38 3.468C364.788 3.188 365.196 2.98 365.604 2.844C366.012 2.7 366.436 2.628 366.876 2.628C367.676 2.628 368.308 2.852 368.772 3.3C369.236 3.74 369.468 4.356 369.468 5.148V7.8C369.468 7.928 369.492 8.024 369.54 8.088C369.596 8.144 369.684 8.176 369.804 8.184V9C369.7 9.016 369.608 9.028 369.528 9.036C369.456 9.044 369.396 9.048 369.348 9.048C369.1 9.048 368.912 8.98 368.784 8.844C368.664 8.708 368.596 8.564 368.58 8.412L368.556 8.016C368.284 8.368 367.928 8.64 367.488 8.832C367.048 9.024 366.612 9.12 366.18 9.12C365.764 9.12 365.392 9.036 365.064 8.868C364.736 8.692 364.48 8.46 364.296 8.172C364.112 7.876 364.02 7.548 364.02 7.188ZM368.1 7.632C368.196 7.52 368.272 7.408 368.328 7.296C368.384 7.176 368.412 7.076 368.412 6.996V6.216C368.164 6.12 367.904 6.048 367.632 6C367.36 5.944 367.092 5.916 366.828 5.916C366.292 5.916 365.856 6.024 365.52 6.24C365.192 6.448 365.028 6.736 365.028 7.104C365.028 7.304 365.08 7.5 365.184 7.692C365.296 7.876 365.456 8.028 365.664 8.148C365.88 8.268 366.144 8.328 366.456 8.328C366.784 8.328 367.096 8.264 367.392 8.136C367.688 8 367.924 7.832 368.1 7.632ZM371.145 9V2.736H375.009V3.672H372.201V9H371.145ZM382.569 6.168C382.913 6.224 383.209 6.352 383.457 6.552C383.705 6.744 383.897 6.992 384.033 7.296C384.169 7.592 384.237 7.928 384.237 8.304C384.237 8.792 384.117 9.22 383.877 9.588C383.645 9.964 383.313 10.252 382.881 10.452C382.449 10.66 381.945 10.764 381.369 10.764C380.761 10.764 380.225 10.648 379.761 10.416C379.305 10.192 378.949 9.872 378.693 9.456L379.401 8.748C379.585 9.068 379.833 9.324 380.145 9.516C380.465 9.708 380.873 9.804 381.369 9.804C381.921 9.804 382.353 9.676 382.665 9.42C382.985 9.172 383.145 8.8 383.145 8.304C383.145 7.8 382.973 7.4 382.629 7.104C382.293 6.8 381.801 6.648 381.153 6.648H380.841V5.76H381.177C381.753 5.76 382.193 5.62 382.497 5.34C382.809 5.06 382.965 4.712 382.965 4.296C382.965 4.008 382.897 3.772 382.761 3.588C382.625 3.404 382.441 3.268 382.209 3.18C381.977 3.084 381.709 3.036 381.405 3.036C380.965 3.036 380.577 3.132 380.241 3.324C379.913 3.508 379.657 3.768 379.473 4.104L378.825 3.432C378.969 3.16 379.173 2.924 379.437 2.724C379.709 2.524 380.021 2.368 380.373 2.256C380.733 2.144 381.113 2.088 381.513 2.088C382.017 2.088 382.461 2.176 382.845 2.352C383.237 2.528 383.541 2.776 383.757 3.096C383.973 3.416 384.081 3.792 384.081 4.224C384.081 4.536 384.021 4.832 383.901 5.112C383.781 5.384 383.605 5.616 383.373 5.808C383.149 5.992 382.881 6.112 382.569 6.168Z" fill="#4DA7FF"/>
<path d="M524.02 9V0.48H525.1V8.04H528.292V0.48H529.372V8.04H532.564V0.48H533.644V9H524.02ZM535.02 7.188C535.02 6.788 535.132 6.444 535.356 6.156C535.588 5.86 535.904 5.632 536.304 5.472C536.704 5.312 537.168 5.232 537.696 5.232C537.976 5.232 538.272 5.256 538.584 5.304C538.896 5.344 539.172 5.408 539.412 5.496V5.04C539.412 4.56 539.268 4.184 538.98 3.912C538.692 3.632 538.284 3.492 537.756 3.492C537.412 3.492 537.08 3.556 536.76 3.684C536.448 3.804 536.116 3.98 535.764 4.212L535.38 3.468C535.788 3.188 536.196 2.98 536.604 2.844C537.012 2.7 537.436 2.628 537.876 2.628C538.676 2.628 539.308 2.852 539.772 3.3C540.236 3.74 540.468 4.356 540.468 5.148V7.8C540.468 7.928 540.492 8.024 540.54 8.088C540.596 8.144 540.684 8.176 540.804 8.184V9C540.7 9.016 540.608 9.028 540.528 9.036C540.456 9.044 540.396 9.048 540.348 9.048C540.1 9.048 539.912 8.98 539.784 8.844C539.664 8.708 539.596 8.564 539.58 8.412L539.556 8.016C539.284 8.368 538.928 8.64 538.488 8.832C538.048 9.024 537.612 9.12 537.18 9.12C536.764 9.12 536.392 9.036 536.064 8.868C535.736 8.692 535.48 8.46 535.296 8.172C535.112 7.876 535.02 7.548 535.02 7.188ZM539.1 7.632C539.196 7.52 539.272 7.408 539.328 7.296C539.384 7.176 539.412 7.076 539.412 6.996V6.216C539.164 6.12 538.904 6.048 538.632 6C538.36 5.944 538.092 5.916 537.828 5.916C537.292 5.916 536.856 6.024 536.52 6.24C536.192 6.448 536.028 6.736 536.028 7.104C536.028 7.304 536.08 7.5 536.184 7.692C536.296 7.876 536.456 8.028 536.664 8.148C536.88 8.268 537.144 8.328 537.456 8.328C537.784 8.328 538.096 8.264 538.392 8.136C538.688 8 538.924 7.832 539.1 7.632ZM542.145 9V2.736H546.009V3.672H543.201V9H542.145ZM553.413 10.524V8.496H549.561V7.56L553.749 2.148H554.469V7.536H555.525V8.496H554.469V10.524H553.413ZM550.653 7.536H553.521V3.78L550.653 7.536Z" fill="#B4B4B4"/>
<path d="M8 25H544" stroke="#4DA7FF" stroke-width="2" stroke-dasharray="3 3"/>
<rect x="11" y="20" width="10" height="10" rx="5" fill="white"/>
<rect x="11" y="20" width="10" height="10" rx="5" stroke="#4DA7FF" stroke-width="6"/>
<rect x="188" y="20" width="10" height="10" rx="5" fill="white"/>
<rect x="188" y="20" width="10" height="10" rx="5" stroke="#4DA7FF" stroke-width="6"/>
<rect x="364" y="20" width="10" height="10" rx="5" fill="white"/>
<rect x="364" y="20" width="10" height="10" rx="5" stroke="#4DA7FF" stroke-width="6"/>
<rect x="532.5" y="17.5" width="15" height="15" rx="7.5" fill="white"/>
<rect x="532.5" y="17.5" width="15" height="15" rx="7.5" stroke="#4DA7FF"/>
</svg>
