<svg width="40" height="40" viewBox="0 0 40 40" fill="none" xmlns="http://www.w3.org/2000/svg">
<path d="M21.6668 8.33398C26.3809 8.33398 28.7379 8.33398 30.2024 9.79845C31.6668 11.2629 31.6668 13.6199 31.6668 18.334C31.6668 23.048 31.6668 25.4051 30.2024 26.8695C28.7379 28.334 26.3809 28.334 21.6668 28.334H13.3335C8.61945 28.334 6.26243 28.334 4.79796 26.8695C3.3335 25.4051 3.3335 23.048 3.3335 18.334C3.3335 13.6199 3.3335 11.2629 4.79796 9.79845C6.26243 8.33398 8.61945 8.33398 13.3335 8.33398H15.0002" stroke="#4DA7FF" strokeWidth="1.5" strokeLinecap="round"/>
<path d="M26.6669 33.3341H18.3336C13.6195 33.3341 11.2625 33.3341 9.79806 31.8696C8.98157 31.0531 8.6203 29.9592 8.46045 28.334M35.2025 31.8696C36.6669 30.4051 36.6669 28.0481 36.6669 23.3341C36.6669 18.62 36.6669 16.263 35.2025 14.7985C34.386 13.9821 33.2921 13.6208 31.6669 13.4609" stroke="#4DA7FF" strokeWidth="1.5" strokeLinecap="round"/>
<path d="M21.6668 18.3327C21.6668 20.6339 19.8013 22.4993 17.5002 22.4993C15.199 22.4993 13.3335 20.6339 13.3335 18.3327C13.3335 16.0315 15.199 14.166 17.5002 14.166C19.8013 14.166 21.6668 16.0315 21.6668 18.3327Z" stroke="#4DA7FF" strokeWidth="1.5"/>
<path d="M26.6665 21.666L26.6665 14.9993" stroke="#4DA7FF" strokeWidth="1.5" strokeLinecap="round"/>
<path d="M8.3335 21.666L8.3335 14.9993" stroke="#4DA7FF" strokeWidth="1.5" strokeLinecap="round"/>
</svg>
