<svg width="41" height="40" viewBox="0 0 41 40" fill="none" xmlns="http://www.w3.org/2000/svg">
<circle cx="20.5007" cy="10.0007" r="6.66667" stroke="#4DA7FF" strokeWidth="1.5"/>
<path d="M30.5 14.9993C33.2614 14.9993 35.5 13.1339 35.5 10.8327C35.5 8.5315 33.2614 6.66602 30.5 6.66602" stroke="#4DA7FF" strokeWidth="1.5" strokeLinecap="round"/>
<path d="M10.5 14.9993C7.73858 14.9993 5.5 13.1339 5.5 10.8327C5.5 8.5315 7.73858 6.66602 10.5 6.66602" stroke="#4DA7FF" strokeWidth="1.5" strokeLinecap="round"/>
<path d="M29.1622 24.9993C30.013 25.9799 30.5 27.1184 30.5 28.3327C30.5 32.0146 26.0228 34.9993 20.5 34.9993C14.9772 34.9993 10.5 32.0146 10.5 28.3327C10.5 24.6508 14.9772 21.666 20.5 21.666C21.0679 21.666 21.6247 21.6976 22.1667 21.7582" stroke="#4DA7FF" strokeWidth="1.5" strokeLinecap="round"/>
<path d="M33.834 31.6673C36.7577 31.0262 38.834 29.4024 38.834 27.5007C38.834 25.5989 36.7577 23.9751 33.834 23.334" stroke="#4DA7FF" strokeWidth="1.5" strokeLinecap="round"/>
<path d="M7.16602 31.6673C4.24227 31.0262 2.16602 29.4024 2.16602 27.5007C2.16602 25.5989 4.24227 23.9751 7.16602 23.334" stroke="#4DA7FF" strokeWidth="1.5" strokeLinecap="round"/>
</svg>
