<svg width="40" height="40" viewBox="0 0 40 40" fill="none" xmlns="http://www.w3.org/2000/svg">
<path d="M20.0007 9.16748L19.4603 9.68758C19.6017 9.83447 19.7968 9.91748 20.0007 9.91748C20.2045 9.91748 20.3996 9.83447 20.541 9.68758L20.0007 9.16748ZM14.9369 31.5179L14.4726 32.1069L14.9369 31.5179ZM11.3506 27.754C11.0308 27.4908 10.5581 27.5367 10.2949 27.8565C10.0317 28.1763 10.0776 28.649 10.3974 28.9122L11.3506 27.754ZM4.34264 22.1123C4.5414 22.4757 4.99712 22.6092 5.36054 22.4104C5.72395 22.2117 5.85742 21.7559 5.65867 21.3925L4.34264 22.1123ZM30.2857 33.6151L29.836 33.0149L30.2857 33.6151ZM35.2462 21.5292L35.7888 21.0114L35.2462 21.5292ZM27.5007 21.9304L26.9736 22.464C27.2658 22.7525 27.7355 22.7525 28.0277 22.464L27.5007 21.9304ZM24.7158 33.6151L25.1655 33.0149L24.7158 33.6151ZM19.7553 21.5292L20.2978 22.0471L19.7553 21.5292ZM32.114 33.1997C32.4468 32.9531 32.5167 32.4834 32.2701 32.1506C32.0235 31.8178 31.5538 31.7479 31.221 31.9945L32.114 33.1997ZM35.1892 27.9768C34.9924 28.3412 35.1283 28.7962 35.4928 28.993C35.8573 29.1898 36.3123 29.0539 36.5091 28.6894L35.1892 27.9768ZM35.164 21.4451L34.6336 21.9753L35.164 21.4451ZM4.08398 15.2283C4.08398 11.4564 6.21605 8.26742 9.16672 6.91867C12.0701 5.59152 15.9024 5.99103 19.4603 9.68758L20.541 8.64738C16.5992 4.55198 12.0981 3.92943 8.54312 5.55443C5.03539 7.15783 2.58398 10.8952 2.58398 15.2283H4.08398ZM14.4726 32.1069C15.3309 32.7835 16.2205 33.479 17.1143 34.0013C18.0078 34.5234 18.9769 34.9164 20.0007 34.9164V33.4164C19.3577 33.4164 18.6601 33.1672 17.8711 32.7062C17.0823 32.2452 16.2733 31.6164 15.4012 30.9289L14.4726 32.1069ZM37.4173 15.2283C37.4173 10.8952 34.9659 7.15783 31.4582 5.55443C27.9032 3.92943 23.4021 4.55198 19.4603 8.64738L20.541 9.68758C24.0989 5.99103 27.9312 5.59152 30.8346 6.91867C33.7853 8.26742 35.9173 11.4564 35.9173 15.2283H37.4173ZM15.4012 30.9289C14.0924 29.8972 12.7216 28.8823 11.3506 27.754L10.3974 28.9122C11.778 30.0484 13.217 31.1171 14.4726 32.1069L15.4012 30.9289ZM5.65867 21.3925C4.68637 19.6148 4.08398 17.5957 4.08398 15.2283H2.58398C2.58398 17.867 3.25952 20.1319 4.34264 22.1123L5.65867 21.3925ZM29.836 33.0149C29.3534 33.3765 28.9265 33.6911 28.5159 33.9192C28.1058 34.147 27.778 34.2498 27.5007 34.2498V35.7498C28.14 35.7498 28.7289 35.5168 29.2442 35.2305C29.759 34.9446 30.2663 34.5669 30.7355 34.2153L29.836 33.0149ZM37.4173 25.0989C37.4173 23.5083 36.7948 22.0654 35.7888 21.0114L34.7037 22.0471C35.4516 22.8306 35.9173 23.9057 35.9173 25.0989H37.4173ZM24.266 34.2153C24.7352 34.5668 25.2424 34.9446 25.7572 35.2305C26.2725 35.5168 26.8613 35.7498 27.5007 35.7498V34.2498C27.2233 34.2498 26.8956 34.147 26.4856 33.9192C26.0749 33.6911 25.6481 33.3765 25.1655 33.0149L24.266 34.2153ZM19.0842 25.0989C19.0842 23.9057 19.5499 22.8306 20.2978 22.0471L19.2127 21.0114C18.2067 22.0654 17.5842 23.5083 17.5842 25.0989H19.0842ZM20.2978 22.0471C21.0623 21.2461 22.1154 20.7556 23.2653 20.7498C24.4069 20.744 25.7106 21.2166 26.9736 22.464L28.0277 21.3967C26.5209 19.9087 24.8482 19.2418 23.2577 19.2498C21.6755 19.2578 20.2407 19.9344 19.2127 21.0114L20.2978 22.0471ZM30.7355 34.2153C31.1786 33.8832 31.6255 33.5617 32.114 33.1997L31.221 31.9945C30.7628 32.334 30.2749 32.6861 29.836 33.0149L30.7355 34.2153ZM36.5091 28.6894C37.0708 27.6491 37.4173 26.4636 37.4173 25.0989H35.9173C35.9173 26.1959 35.642 27.1381 35.1892 27.9768L36.5091 28.6894ZM25.1655 33.0149C24.771 32.7193 24.3481 32.4131 23.9365 32.1098L23.0466 33.3173C23.4738 33.6321 23.8766 33.9235 24.266 34.2153L25.1655 33.0149ZM23.9365 32.1098C21.4376 30.268 19.0842 28.2985 19.0842 25.0989H17.5842C17.5842 29.1421 20.6134 31.5239 23.0466 33.3173L23.9365 32.1098ZM23.058 32.1016C21.8954 32.9252 20.9058 33.4164 20.0007 33.4164V34.9164C21.4085 34.9164 22.732 34.1707 23.9251 33.3255L23.058 32.1016ZM35.7888 21.0114C35.7577 20.9788 35.7262 20.9466 35.6944 20.9148L34.6336 21.9753C34.6572 21.999 34.6806 22.0229 34.7037 22.0471L35.7888 21.0114ZM35.6944 20.9148C34.658 19.8782 33.2343 19.2379 31.6721 19.2499C30.1024 19.2621 28.4574 19.9314 26.9736 21.3967L28.0277 22.464C29.2718 21.2353 30.5553 20.7586 31.6837 20.7499C32.8196 20.7411 33.8636 21.2052 34.6336 21.9753L35.6944 20.9148ZM35.8304 21.7891C36.8132 19.8854 37.4173 17.7235 37.4173 15.2283H35.9173C35.9173 17.4683 35.378 19.3956 34.4976 21.101L35.8304 21.7891Z" fill="#4DA7FF"/>
</svg>
