<svg width="41" height="40" viewBox="0 0 41 40" fill="none" xmlns="http://www.w3.org/2000/svg">
<path d="M36.2433 11.7817C34.8903 8.34716 32.1528 5.60962 28.7183 4.25661C26.149 3.24446 23.8333 5.57191 23.8333 8.33333V15C23.8333 15.9205 24.5794 16.6667 25.4999 16.6667H32.1666C34.928 16.6667 37.2555 14.3509 36.2433 11.7817Z" stroke="#4DA7FF" strokeWidth="1.5"/>
<path d="M10.8701 7.6684C11.611 7.17332 12.389 6.74393 13.1951 6.38293C15.4815 5.35897 16.6248 4.84699 18.1457 5.83233C19.6666 6.81768 19.6666 8.43401 19.6666 11.6667V14.1667C19.6666 17.3094 19.6666 18.8807 20.6429 19.857C21.6192 20.8333 23.1906 20.8333 26.3333 20.8333H28.8333C32.0659 20.8333 33.6823 20.8333 34.6676 22.3542C35.6529 23.8752 35.141 25.0184 34.117 27.3048C33.756 28.1109 33.3266 28.8889 32.8315 29.6299C31.0917 32.2336 28.6189 34.263 25.7257 35.4614C22.8326 36.6598 19.649 36.9734 16.5777 36.3624C13.5063 35.7515 10.6851 34.2435 8.47074 32.0292C6.2564 29.8149 4.74843 26.9936 4.13749 23.9223C3.52656 20.8509 3.84011 17.6673 5.0385 14.7742" stroke="#4DA7FF" strokeWidth="1.5" strokeLinecap="round"/>
</svg>
