<svg width="41" height="40" viewBox="0 0 41 40" fill="none" xmlns="http://www.w3.org/2000/svg">
<path d="M15.5 25L25.5 15" stroke="#4DA7FF" strokeWidth="1.5" strokeLinecap="round"/>
<path d="M26.3333 24.1667C26.3333 25.0871 25.5871 25.8333 24.6667 25.8333C23.7462 25.8333 23 25.0871 23 24.1667C23 23.2462 23.7462 22.5 24.6667 22.5C25.5871 22.5 26.3333 23.2462 26.3333 24.1667Z" fill="#4DA7FF"/>
<path d="M17.9993 15.8327C17.9993 16.7532 17.2532 17.4993 16.3327 17.4993C15.4122 17.4993 14.666 16.7532 14.666 15.8327C14.666 14.9122 15.4122 14.166 16.3327 14.166C17.2532 14.166 17.9993 14.9122 17.9993 15.8327Z" fill="#4DA7FF"/>
<path d="M38.5 20C38.5 28.4853 38.5 32.7279 35.864 35.364C33.2279 38 28.9853 38 20.5 38C12.0147 38 7.77208 38 5.13604 35.364C2.5 32.7279 2.5 28.4853 2.5 20C2.5 11.5147 2.5 7.27208 5.13604 4.63604C7.77208 2 12.0147 2 20.5 2C28.9853 2 33.2279 2 35.864 4.63604C37.6167 6.38877 38.204 8.85179 38.4008 12.8" stroke="#4DA7FF" strokeWidth="1.5" strokeLinecap="round"/>
</svg>
