<svg width="40" height="40" viewBox="0 0 40 40" fill="none" xmlns="http://www.w3.org/2000/svg">
<path d="M25 8.33398H15" stroke="#4DA7FF" strokeWidth="1.5" strokeLinecap="round"/>
<path d="M35.4001 24.4122C35.0755 24.1549 34.6038 24.2096 34.3465 24.5342C34.0893 24.8589 34.144 25.3306 34.4686 25.5878L35.4001 24.4122ZM5.5317 25.5878C5.85636 25.3306 5.91102 24.8589 5.65379 24.5342C5.39655 24.2096 4.92484 24.1549 4.60018 24.4122L5.5317 25.5878ZM20.0002 34.4792L20.494 35.0436C20.6568 34.9012 20.7502 34.6954 20.7502 34.4792C20.7502 34.2629 20.6568 34.0572 20.494 33.9147L20.0002 34.4792ZM17.5002 32.2917L17.994 31.7272C17.7726 31.5334 17.4582 31.4871 17.1903 31.6087C16.9223 31.7303 16.7502 31.9974 16.7502 32.2917H17.5002ZM17.5002 36.6667H16.7502C16.7502 36.9609 16.9223 37.228 17.1903 37.3496C17.4582 37.4712 17.7726 37.4249 17.994 37.2311L17.5002 36.6667ZM24.0912 33.5262C23.6791 33.568 23.3789 33.9359 23.4207 34.348C23.4624 34.7601 23.8303 35.0604 24.2425 35.0186L24.0912 33.5262ZM34.4686 25.5878C35.4858 26.3938 35.9168 27.1906 35.9168 27.9167H37.4168C37.4168 26.5473 36.6007 25.3634 35.4001 24.4122L34.4686 25.5878ZM4.0835 27.9167C4.0835 27.1906 4.51448 26.3938 5.5317 25.5878L4.60018 24.4122C3.39957 25.3634 2.5835 26.5473 2.5835 27.9167H4.0835ZM20.494 33.9147L17.994 31.7272L17.0063 32.8561L19.5063 35.0436L20.494 33.9147ZM17.994 37.2311L20.494 35.0436L19.5063 33.9147L17.0063 36.1022L17.994 37.2311ZM35.9168 27.9167C35.9168 28.9849 34.9603 30.2033 32.7765 31.2975C30.6559 32.3601 27.6266 33.168 24.0912 33.5262L24.2425 35.0186C27.8955 34.6484 31.1162 33.8073 33.4485 32.6386C35.7176 31.5015 37.4168 29.9063 37.4168 27.9167H35.9168ZM16.7502 32.2917V34.4058H18.2502V32.2917H16.7502ZM16.7502 34.4058V36.6667H18.2502V34.4058H16.7502ZM17.5445 33.6571C13.5979 33.4234 10.1523 32.6371 7.71958 31.5338C6.50197 30.9816 5.5729 30.3655 4.9585 29.7303C4.34748 29.0985 4.0835 28.4886 4.0835 27.9167H2.5835C2.5835 28.9896 3.088 29.9539 3.8803 30.7731C4.66921 31.5888 5.77829 32.3004 7.1 32.8999C9.74593 34.0999 13.3837 34.9133 17.4558 35.1545L17.5445 33.6571Z" fill="#4DA7FF"/>
<path d="M30.8332 13.334C30.8332 8.61994 30.8332 6.26292 29.3687 4.79845C27.9042 3.33398 25.5472 3.33398 20.8332 3.33398H19.1665C14.4525 3.33398 12.0954 3.33398 10.631 4.79845C9.1665 6.26292 9.1665 8.61994 9.1665 13.334V26.6673C9.1665 27.259 9.1665 27.8136 9.1694 28.334M30.8303 28.334C30.8332 27.8136 30.8332 27.259 30.8332 26.6673V20.0007" stroke="#4DA7FF" strokeWidth="1.5" strokeLinecap="round"/>
</svg>
