<svg width="16" height="16" viewBox="0 0 16 16" fill="none" xmlns="http://www.w3.org/2000/svg">
<path d="M7.48343 1.06875C7.63311 0.608096 8.28481 0.608095 8.43449 1.06875L9.97037 5.79571C10.0373 6.00172 10.2293 6.1412 10.4459 6.1412H15.4161C15.9005 6.1412 16.1019 6.76101 15.71 7.04571L11.689 9.96714C11.5138 10.0945 11.4404 10.3201 11.5074 10.5262L13.0433 15.2531C13.1929 15.7138 12.6657 16.0968 12.2738 15.8121L8.25285 12.8907C8.07761 12.7634 7.84031 12.7634 7.66507 12.8907L3.64407 15.8121C3.25222 16.0968 2.72498 15.7138 2.87465 15.2531L4.41053 10.5262C4.47747 10.3201 4.40414 10.0945 4.2289 9.96714L0.207905 7.04571C-0.183952 6.76101 0.0174344 6.1412 0.501796 6.1412H5.47202C5.68863 6.1412 5.88061 6.00172 5.94755 5.79571L7.48343 1.06875Z" fill="#F7AE4F"/>
</svg>
