<svg width="40" height="40" viewBox="0 0 40 40" fill="none" xmlns="http://www.w3.org/2000/svg">
<path d="M6.66602 8.33268C6.66602 7.41221 7.41221 6.66602 8.33268 6.66602H31.666C32.5865 6.66602 33.3327 7.41221 33.3327 8.33268V11.666C33.3327 12.5865 32.5865 13.3327 31.666 13.3327H8.33268C7.41221 13.3327 6.66602 12.5865 6.66602 11.666V8.33268Z" stroke="#4DA7FF" strokeWidth="1.5" strokeLinecap="round" strokeLinejoin="round"/>
<path d="M6.66602 21.666C6.66602 20.7455 7.41221 19.9993 8.33268 19.9993H18.3327C19.2532 19.9993 19.9993 20.7455 19.9993 21.666V31.666C19.9993 32.5865 19.2532 33.3327 18.3327 33.3327H8.33268C7.41221 33.3327 6.66602 32.5865 6.66602 31.666V21.666Z" stroke="#4DA7FF" strokeWidth="1.5" strokeLinecap="round" strokeLinejoin="round"/>
<path d="M26.666 21.666C26.666 20.7455 27.4122 19.9993 28.3327 19.9993H31.666C32.5865 19.9993 33.3327 20.7455 33.3327 21.666V31.666C33.3327 32.5865 32.5865 33.3327 31.666 33.3327H28.3327C27.4122 33.3327 26.666 32.5865 26.666 31.666V21.666Z" stroke="#4DA7FF" strokeWidth="1.5" strokeLinecap="round" strokeLinejoin="round"/>
</svg>
