<svg width="25" height="24" viewBox="0 0 25 24" fill="none" xmlns="http://www.w3.org/2000/svg">
<path d="M10 14C11.6569 14 13 15.3431 13 17C13 18.6568 11.6569 20 10 20C8.34315 20 7 18.6568 7 17C7 15.3431 8.34315 14 10 14Z" stroke="#121212" strokeWidth="1.5"/>
<path d="M15 3.99998C13.3431 3.99998 12 5.34312 12 6.99998C12 8.65683 13.3431 9.99998 15 9.99998C16.6569 9.99998 18 8.65683 18 6.99998C18 5.34312 16.6569 3.99998 15 3.99998Z" stroke="#121212" strokeWidth="1.5"/>
<path d="M11.5001 7.00001L6.5001 7M3.50002 7.00001L2.5 7.00001" stroke="#121212" strokeWidth="1.5" strokeLinecap="round"/>
<path d="M13.5 17L18.5 17M21.5001 17L22.5001 17" stroke="#121212" strokeWidth="1.5" strokeLinecap="round"/>
<path d="M2.5 17L6.5 17" stroke="#121212" strokeWidth="1.5" strokeLinecap="round"/>
<path d="M22.5 7L18.5 7" stroke="#121212" strokeWidth="1.5" strokeLinecap="round"/>
</svg>
