<svg width="14" height="13" viewBox="0 0 14 13" fill="none" xmlns="http://www.w3.org/2000/svg">
<path d="M6.78326 0.463524C6.93294 0.00286841 7.58464 0.00286996 7.73432 0.463525L8.94264 4.18237C9.00958 4.38838 9.20156 4.52786 9.41817 4.52786H13.3284C13.8128 4.52786 14.0141 5.14767 13.6223 5.43237L10.4589 7.73075C10.2836 7.85807 10.2103 8.08375 10.2772 8.28976L11.4855 12.0086C11.6352 12.4693 11.108 12.8523 10.7161 12.5676L7.55268 10.2693C7.37744 10.1419 7.14014 10.1419 6.9649 10.2693L3.80145 12.5676C3.4096 12.8523 2.88236 12.4693 3.03204 12.0086L4.24036 8.28976C4.3073 8.08375 4.23397 7.85807 4.05873 7.73075L0.895285 5.43237C0.503428 5.14767 0.704817 4.52786 1.18918 4.52786H5.09941C5.31602 4.52786 5.508 4.38838 5.57493 4.18237L6.78326 0.463524Z" fill="#F7AE4F"/>
</svg>
