<svg width="44" height="43" viewBox="0 0 44 43" fill="none" xmlns="http://www.w3.org/2000/svg">
<circle cx="21.5" cy="21.5" r="21.5" transform="matrix(-1 0 0 1 43.5 0)" fill="#7BBEFF"/>
<path d="M35.5 20C36.0523 20 36.5 20.4477 36.5 21C36.5 21.5523 36.0523 22 35.5 22V20ZM10.7929 21.7071C10.4024 21.3166 10.4024 20.6834 10.7929 20.2929L17.1569 13.9289C17.5474 13.5384 18.1805 13.5384 18.5711 13.9289C18.9616 14.3195 18.9616 14.9526 18.5711 15.3431L12.9142 21L18.5711 26.6569C18.9616 27.0474 18.9616 27.6805 18.5711 28.0711C18.1805 28.4616 17.5474 28.4616 17.1569 28.0711L10.7929 21.7071ZM35.5 22H11.5V20H35.5V22Z" fill="white"/>
</svg>
