<svg width="44" height="43" viewBox="0 0 44 43" fill="none" xmlns="http://www.w3.org/2000/svg">
<circle cx="22" cy="21.5" r="21.5" fill="#7BBEFF"/>
<path d="M8.5 20C7.94772 20 7.5 20.4477 7.5 21C7.5 21.5523 7.94772 22 8.5 22V20ZM33.2071 21.7071C33.5976 21.3166 33.5976 20.6834 33.2071 20.2929L26.8431 13.9289C26.4526 13.5384 25.8195 13.5384 25.4289 13.9289C25.0384 14.3195 25.0384 14.9526 25.4289 15.3431L31.0858 21L25.4289 26.6569C25.0384 27.0474 25.0384 27.6805 25.4289 28.0711C25.8195 28.4616 26.4526 28.4616 26.8431 28.0711L33.2071 21.7071ZM8.5 22H32.5V20H8.5V22Z" fill="white"/>
</svg>
