<svg width="41" height="40" viewBox="0 0 41 40" fill="none" xmlns="http://www.w3.org/2000/svg">
<path d="M22.1663 8.33398C26.8804 8.33398 29.2374 8.33398 30.7019 9.79845C32.1663 11.2629 32.1663 13.6199 32.1663 18.334C32.1663 23.048 32.1663 25.4051 30.7019 26.8695C29.2374 28.334 26.8804 28.334 22.1663 28.334H13.833C9.11896 28.334 6.76194 28.334 5.29747 26.8695C3.83301 25.4051 3.83301 23.048 3.83301 18.334C3.83301 13.6199 3.83301 11.2629 5.29747 9.79845C6.76194 8.33398 9.11896 8.33398 13.833 8.33398H15.4997" stroke="#4DA7FF" strokeWidth="1.5" strokeLinecap="round"/>
<path d="M27.1674 33.3341H18.8341C14.12 33.3341 11.763 33.3341 10.2985 31.8696C9.48205 31.0531 9.12079 29.9592 8.96094 28.334M35.7029 31.8696C37.1674 30.4051 37.1674 28.0481 37.1674 23.3341C37.1674 18.62 37.1674 16.263 35.7029 14.7985C34.8865 13.9821 33.7926 13.6208 32.1674 13.4609" stroke="#4DA7FF" strokeWidth="1.5" strokeLinecap="round"/>
<path d="M22.1663 18.3327C22.1663 20.6339 20.3009 22.4993 17.9997 22.4993C15.6985 22.4993 13.833 20.6339 13.833 18.3327C13.833 16.0315 15.6985 14.166 17.9997 14.166C20.3009 14.166 22.1663 16.0315 22.1663 18.3327Z" stroke="#4DA7FF" strokeWidth="1.5"/>
<path d="M27.167 21.666L27.167 14.9993" stroke="#4DA7FF" strokeWidth="1.5" strokeLinecap="round"/>
<path d="M8.83301 21.666L8.83301 14.9993" stroke="#4DA7FF" strokeWidth="1.5" strokeLinecap="round"/>
</svg>
