<svg width="41" height="40" viewBox="0 0 41 40" fill="none" xmlns="http://www.w3.org/2000/svg">
<path d="M32.1663 33.334V23.334M32.1663 23.334L35.4997 26.6673M32.1663 23.334L28.833 26.6673" stroke="#4DA7FF" stroke-width="1.5" stroke-linecap="round" stroke-linejoin="round"/>
<path d="M37.1663 19.9993C37.1663 13.714 37.1663 10.5713 35.2137 8.61864C33.2611 6.66602 30.1184 6.66602 23.833 6.66602M23.833 33.3327H17.1663C10.8809 33.3327 7.73825 33.3327 5.78563 31.3801C3.83301 29.4274 3.83301 26.2847 3.83301 19.9993C3.83301 13.714 3.83301 10.5713 5.78563 8.61864C7.73825 6.66602 10.8809 6.66602 17.1663 6.66602" stroke="#4DA7FF" stroke-width="1.5" stroke-linecap="round"/>
<path d="M17.1667 26.666H10.5" stroke="#4DA7FF" stroke-width="1.5" stroke-linecap="round"/>
<path d="M22.1663 26.666H21.333" stroke="#4DA7FF" stroke-width="1.5" stroke-linecap="round"/>
<path d="M3.83301 16.666H12.1663M37.1663 16.666H18.833" stroke="#4DA7FF" stroke-width="1.5" stroke-linecap="round"/>
</svg>
