<svg width="41" height="40" viewBox="0 0 41 40" fill="none" xmlns="http://www.w3.org/2000/svg">
<path d="M15.5 22.334L18.3571 25.0007L25.5 18.334" stroke="#4DA7FF" stroke-width="1.5" stroke-linecap="round" stroke-linejoin="round"/>
<path d="M35.5 26.667C35.5 31.3811 35.5 33.7381 34.0355 35.2026C32.5711 36.667 30.214 36.667 25.5 36.667H15.5C10.786 36.667 8.42893 36.667 6.96447 35.2026C5.5 33.7381 5.5 31.3811 5.5 26.667V21.667M27.1667 6.66992C30.7917 6.6901 32.7549 6.85085 34.0355 8.13149C35.5 9.59596 35.5 11.953 35.5 16.667V20.0004M13.8333 6.66992C10.2083 6.6901 8.24511 6.85085 6.96447 8.13149C5.68387 9.41209 5.52309 11.3752 5.5029 15" stroke="#4DA7FF" stroke-width="1.5" stroke-linecap="round"/>
<path d="M13.833 5.83398C13.833 4.45327 14.9523 3.33398 16.333 3.33398H24.6663C26.0471 3.33398 27.1663 4.45327 27.1663 5.83398V7.50065C27.1663 8.88136 26.0471 10.0007 24.6663 10.0007H16.333C14.9523 10.0007 13.833 8.88136 13.833 7.50065V5.83398Z" stroke="#4DA7FF" stroke-width="1.5"/>
</svg>
