<svg width="41" height="40" viewBox="0 0 41 40" fill="none" xmlns="http://www.w3.org/2000/svg">
<path d="M12.7851 13.332C14.4369 10.7914 16.0729 8.18152 17.0937 5.62723C17.5266 4.54424 18.8605 4.03535 19.7882 4.74208C25.4069 9.02218 33.8337 17.2959 33.8337 24.9991C33.8337 26.955 33.5017 28.6081 32.95 29.9987M9.60967 18.332C8.18921 20.7552 7.16699 23.0209 7.16699 24.9991C7.16699 30.1772 10.9096 33.8471 13.9694 35.6182C14.6704 36.024 15.3528 35.1775 14.9849 34.4558C14.175 32.8667 13.3892 30.8144 13.3892 29.1657C13.3892 26.88 15.1307 25.0432 16.3747 23.8654C16.6937 23.5633 17.1937 23.568 17.4703 23.9094C17.9838 24.5432 18.4973 25.3454 19.0108 25.9949C19.3123 26.3761 19.8738 26.3423 20.1384 25.9346C21.7819 23.402 22.163 20.1705 22.2514 17.7552C22.2781 17.0261 23.1313 16.668 23.6205 17.2092C25.7602 19.5765 28.5003 23.4147 28.5003 26.6657C28.5003 29.6921 26.8042 32.9094 25.3368 35.0181C24.9067 35.6362 25.3793 36.4744 26.0983 36.2507C26.956 35.9838 27.8779 35.5834 28.7758 35.0181" stroke="#4DA7FF" stroke-width="1.5" stroke-linecap="round"/>
</svg>
