<svg width="41" height="40" viewBox="0 0 41 40" fill="none" xmlns="http://www.w3.org/2000/svg">
<path d="M5.54797 21.7964C5.00484 20.66 5.00484 19.339 5.54797 18.2027C5.78279 17.7114 6.18323 17.2415 6.98411 16.3017C7.30286 15.9277 7.46224 15.7407 7.59611 15.5409C7.90299 15.0831 8.11597 14.5689 8.22273 14.0281C8.2693 13.7922 8.28885 13.5473 8.32794 13.0574C8.42617 11.8266 8.47528 11.2112 8.65663 10.6977C9.07609 9.51018 10.0102 8.57609 11.1977 8.15663C11.7112 7.97528 12.3266 7.92617 13.5574 7.82794C14.0473 7.78885 14.2922 7.7693 14.5281 7.72273C15.0689 7.61597 15.5831 7.40299 16.0409 7.09611C16.2407 6.96224 16.4277 6.80286 16.8017 6.48411C17.7415 5.68323 18.2114 5.28279 18.7027 5.04797C19.839 4.50484 21.16 4.50484 22.2964 5.04797C22.7877 5.28279 23.2575 5.68323 24.1973 6.48411C24.5714 6.80286 24.7584 6.96224 24.9581 7.09611C25.416 7.40299 25.9302 7.61597 26.4709 7.72273C26.7068 7.7693 26.9518 7.78885 27.4416 7.82794C28.6725 7.92617 29.2879 7.97528 29.8013 8.15663C30.9889 8.57609 31.923 9.51018 32.3424 10.6977M8.65663 29.3013C9.07609 30.4889 10.0102 31.423 11.1977 31.8424C11.7112 32.0238 12.3266 32.0729 13.5574 32.1711C14.0473 32.2102 14.2922 32.2298 14.5281 32.2763C15.0689 32.3831 15.5831 32.5961 16.0409 32.903C16.2407 33.0368 16.4277 33.1962 16.8017 33.515C17.7415 34.3158 18.2114 34.7163 18.7027 34.9511C19.839 35.4942 21.16 35.4942 22.2964 34.9511C22.7877 34.7163 23.2575 34.3158 24.1973 33.515C24.5714 33.1962 24.7584 33.0368 24.9581 32.903C25.416 32.5961 25.9302 32.3831 26.4709 32.2763C26.7068 32.2298 26.9518 32.2102 27.4416 32.1711C28.6725 32.0729 29.2879 32.0238 29.8013 31.8424C30.9889 31.423 31.923 30.4889 32.3424 29.3013C32.5238 28.7879 32.5729 28.1725 32.6711 26.9416C32.7102 26.4518 32.7298 26.2068 32.7763 25.9709C32.8831 25.4302 33.0961 24.916 33.403 24.4581C33.5368 24.2584 33.6962 24.0714 34.015 23.6973C34.8158 22.7575 35.2163 22.2877 35.4511 21.7964C35.9942 20.66 35.9942 19.339 35.4511 18.2027" stroke="#4DA7FF" stroke-width="1.5" stroke-linecap="round"/>
<path d="M15.5 25L25.5 15" stroke="#4DA7FF" stroke-width="1.5" stroke-linecap="round"/>
<path d="M26.3333 24.1667C26.3333 25.0871 25.5871 25.8333 24.6667 25.8333C23.7462 25.8333 23 25.0871 23 24.1667C23 23.2462 23.7462 22.5 24.6667 22.5C25.5871 22.5 26.3333 23.2462 26.3333 24.1667Z" fill="#4DA7FF"/>
<path d="M18.0003 15.8327C18.0003 16.7532 17.2541 17.4993 16.3337 17.4993C15.4132 17.4993 14.667 16.7532 14.667 15.8327C14.667 14.9122 15.4132 14.166 16.3337 14.166C17.2541 14.166 18.0003 14.9122 18.0003 15.8327Z" fill="#4DA7FF"/>
</svg>
