<svg width="41" height="40" viewBox="0 0 41 40" fill="none" xmlns="http://www.w3.org/2000/svg">
<path d="M16.333 20.666L18.714 23.3327L24.6663 16.666" stroke="#4DA7FF" strokeWidth="1.5" strokeLinecap="round" strokeLinejoin="round"/>
<path d="M5.5 17.3617C5.5 12.0324 5.5 9.36778 6.12919 8.47133C6.75839 7.57488 9.26387 6.71725 14.2749 5.00197L15.2295 4.67518C17.8416 3.78105 19.1477 3.33398 20.5 3.33398C21.8523 3.33398 23.1584 3.78105 25.7705 4.67518L26.7251 5.00197C31.7361 6.71725 34.2416 7.57488 34.8708 8.47133C35.5 9.36778 35.5 12.0324 35.5 17.3617C35.5 18.1667 35.5 19.0397 35.5 19.9862C35.5 24.1612 34.1054 27.3814 32.1667 29.8409M5.8214 23.334C7.25043 30.498 13.1274 34.1888 16.9976 35.8794C18.2 36.4047 18.8012 36.6673 20.5 36.6673C22.1988 36.6673 22.8 36.4047 24.0024 35.8794C24.966 35.4585 26.0539 34.9136 27.1667 34.222" stroke="#4DA7FF" strokeWidth="1.5" strokeLinecap="round"/>
</svg>
