<svg width="41" height="40" viewBox="0 0 41 40" fill="none" xmlns="http://www.w3.org/2000/svg">
<path d="M25.5 8.33398H15.5" stroke="#4DA7FF" strokeWidth="1.5" strokeLinecap="round"/>
<path d="M35.8997 24.4122C35.575 24.1549 35.1033 24.2096 34.846 24.5342C34.5888 24.8589 34.6435 25.3306 34.9681 25.5878L35.8997 24.4122ZM6.03122 25.5878C6.35587 25.3306 6.41053 24.8589 6.1533 24.5342C5.89606 24.2096 5.42435 24.1549 5.09969 24.4122L6.03122 25.5878ZM20.4997 34.4792L20.9936 35.0436C21.1563 34.9012 21.2497 34.6954 21.2497 34.4792C21.2497 34.2629 21.1563 34.0572 20.9936 33.9147L20.4997 34.4792ZM17.9997 32.2917L18.4936 31.7272C18.2721 31.5334 17.9577 31.4871 17.6898 31.6087C17.4218 31.7303 17.2497 31.9974 17.2497 32.2917H17.9997ZM17.9997 36.6667H17.2497C17.2497 36.9609 17.4218 37.228 17.6898 37.3496C17.9577 37.4712 18.2721 37.4249 18.4936 37.2311L17.9997 36.6667ZM24.5907 33.5262C24.1786 33.568 23.8784 33.9359 23.9202 34.348C23.9619 34.7601 24.3299 35.0604 24.742 35.0186L24.5907 33.5262ZM34.9681 25.5878C35.9854 26.3938 36.4163 27.1906 36.4163 27.9167H37.9163C37.9163 26.5473 37.1003 25.3634 35.8997 24.4122L34.9681 25.5878ZM4.58301 27.9167C4.58301 27.1906 5.01399 26.3938 6.03122 25.5878L5.09969 24.4122C3.89909 25.3634 3.08301 26.5473 3.08301 27.9167H4.58301ZM20.9936 33.9147L18.4936 31.7272L17.5058 32.8561L20.0058 35.0436L20.9936 33.9147ZM18.4936 37.2311L20.9936 35.0436L20.0058 33.9147L17.5058 36.1022L18.4936 37.2311ZM36.4163 27.9167C36.4163 28.9849 35.4598 30.2033 33.276 31.2975C31.1554 32.3601 28.1261 33.168 24.5907 33.5262L24.742 35.0186C28.3951 34.6484 31.6157 33.8073 33.948 32.6386C36.2171 31.5015 37.9163 29.9063 37.9163 27.9167H36.4163ZM17.2497 32.2917V34.4058H18.7497V32.2917H17.2497ZM17.2497 34.4058V36.6667H18.7497V34.4058H17.2497ZM18.044 33.6571C14.0974 33.4234 10.6518 32.6371 8.21909 31.5338C7.00148 30.9816 6.07241 30.3655 5.45801 29.7303C4.84699 29.0985 4.58301 28.4886 4.58301 27.9167H3.08301C3.08301 28.9896 3.58752 29.9539 4.37981 30.7731C5.16872 31.5888 6.2778 32.3004 7.59952 32.8999C10.2454 34.0999 13.8832 34.9133 17.9553 35.1545L18.044 33.6571Z" fill="#4DA7FF"/>
<path d="M31.3337 13.334C31.3337 8.61994 31.3337 6.26292 29.8692 4.79845C28.4047 3.33398 26.0477 3.33398 21.3337 3.33398H19.667C14.9529 3.33398 12.5959 3.33398 11.1315 4.79845C9.66699 6.26292 9.66699 8.61994 9.66699 13.334V26.6673C9.66699 27.259 9.66699 27.8136 9.66989 28.334M31.3308 28.334C31.3337 27.8136 31.3337 27.259 31.3337 26.6673V20.0007" stroke="#4DA7FF" strokeWidth="1.5" strokeLinecap="round"/>
</svg>
