<svg width="41" height="40" viewBox="0 0 41 40" fill="none" xmlns="http://www.w3.org/2000/svg">
<path d="M10.5656 12.954C6.4661 13.8816 4.41637 14.3453 3.92871 15.9135C3.44105 17.4817 4.83842 19.1158 7.63317 22.3839L8.35621 23.2294C9.15038 24.158 9.54747 24.6224 9.72611 25.1968C9.90475 25.7713 9.84472 26.3908 9.72465 27.6299L9.61533 28.758C9.19281 33.1183 8.98154 35.2985 10.2583 36.2677C11.535 37.2369 13.4541 36.3532 17.2925 34.5859L18.2855 34.1287C19.3762 33.6265 19.9216 33.3754 20.4997 33.3754C21.0778 33.3754 21.6231 33.6265 22.7139 34.1287L23.7069 34.5859C27.5452 36.3532 29.4644 37.2369 30.7411 36.2677C32.0178 35.2985 31.8065 33.1183 31.384 28.758M33.3662 22.3839C36.1609 19.1158 37.5583 17.4817 37.0706 15.9135C36.583 14.3453 34.5332 13.8816 30.4338 12.954L29.3732 12.7141C28.2083 12.4505 27.6258 12.3187 27.1581 11.9637C26.6904 11.6086 26.3905 11.0705 25.7906 9.99437L25.2444 9.01461C23.1333 5.22753 22.0778 3.33398 20.4997 3.33398C18.9216 3.33398 17.866 5.22753 15.7549 9.01461" stroke="#4DA7FF" stroke-width="1.5" stroke-linecap="round"/>
</svg>
