<svg width="41" height="40" viewBox="0 0 41 40" fill="none" xmlns="http://www.w3.org/2000/svg">
<path d="M25.4997 8.33398L15.4997 8.33398C10.8181 8.33399 8.47736 8.33399 6.79587 9.45752C6.06794 9.94391 5.44293 10.5689 4.95654 11.2969C3.83301 12.9783 3.83301 15.3191 3.83301 20.0007C3.83301 24.6822 3.83301 27.023 4.95654 28.7045C5.44293 29.4324 6.06794 30.0574 6.79587 30.5438C7.37415 30.9302 8.03039 31.1837 8.83301 31.35M15.4997 31.6673H25.4997C30.1812 31.6673 32.522 31.6673 34.2035 30.5438C34.9314 30.0574 35.5564 29.4324 36.0428 28.7045C37.1663 27.023 37.1663 24.6822 37.1663 20.0007C37.1663 15.3191 37.1663 12.9783 36.0428 11.2968C35.5564 10.5689 34.9314 9.94391 34.2035 9.45752C33.6252 9.07113 32.969 8.81762 32.1663 8.6513" stroke="#4DA7FF" strokeWidth="1.5" strokeLinecap="round"/>
<path d="M15.5 15C12.7386 15 10.5 17.2386 10.5 20C10.5 22.7614 12.7386 25 15.5 25" stroke="#4DA7FF" strokeWidth="1.5"/>
<path d="M25.5 15C28.2614 15 30.5 17.2386 30.5 20C30.5 22.7614 28.2614 25 25.5 25" stroke="#4DA7FF" strokeWidth="1.5"/>
<path d="M15.5 8.33398V31.6673" stroke="#4DA7FF" strokeWidth="1.5" strokeLinecap="round"/>
<path d="M25.5 8.33398V31.6673" stroke="#4DA7FF" strokeWidth="1.5" strokeLinecap="round"/>
</svg>
