<svg width="41" height="40" viewBox="0 0 41 40" fill="none" xmlns="http://www.w3.org/2000/svg">
<path d="M10.5 16.666H17.1667" stroke="#4DA7FF" stroke-width="1.5" stroke-linecap="round" stroke-linejoin="round"/>
<path d="M37.1628 20.834C37.1628 20.705 37.1667 19.9461 37.1628 19.8916C37.1039 19.0571 36.388 18.3923 35.4892 18.3376C35.4306 18.334 35.3611 18.334 35.2222 18.334H30.8846C27.9108 18.334 25.5 20.5726 25.5 23.334C25.5 26.0954 27.9108 28.334 30.8846 28.334H35.2222C35.3611 28.334 35.4306 28.334 35.4892 28.3304C36.388 28.2757 37.1039 27.6109 37.1628 26.7763C37.1667 26.7219 37.1667 25.963 37.1667 25.834" stroke="#4DA7FF" stroke-width="1.5" stroke-linecap="round"/>
<circle cx="30.4997" cy="23.3327" r="1.66667" fill="#4DA7FF"/>
<path d="M17.1663 36.6667H22.1663C28.4517 36.6667 31.5944 36.6667 33.5471 34.714C34.894 33.3671 35.3118 31.4538 35.4414 28.3333M35.4414 18.3333C35.3118 15.2128 34.894 13.2996 33.5471 11.9526C31.5944 10 28.4517 10 22.1663 10H17.1663C10.8809 10 7.73825 10 5.78563 11.9526C3.83301 13.9052 3.83301 17.0479 3.83301 23.3333C3.83301 29.6187 3.83301 32.7614 5.78563 34.714C6.87427 35.8027 8.33282 36.2844 10.4997 36.4975" stroke="#4DA7FF" stroke-width="1.5" stroke-linecap="round"/>
<path d="M11 10L17.2258 5.87189C18.9791 4.70937 21.3543 4.70937 23.1075 5.87189L29.3333 10" stroke="#4DA7FF" stroke-width="1.5" stroke-linecap="round"/>
</svg>
