<svg width="41" height="40" viewBox="0 0 41 40" fill="none" xmlns="http://www.w3.org/2000/svg">
<path d="M35.5 20.0007C35.5 29.2054 32.1421 36.6673 28 36.6673M28 3.33398C31.0755 3.33398 33.7186 7.44763 34.8759 13.334" stroke="#4DA7FF" strokeWidth="1.5" strokeLinecap="round"/>
<path d="M5.5 20.0007C5.5 10.7959 8.85786 3.33398 13 3.33398C17.1421 3.33398 20.5 10.7959 20.5 20.0007C20.5 29.2054 17.1421 36.6673 13 36.6673C9.92452 36.6673 7.2814 32.5537 6.12407 26.6673" stroke="#4DA7FF" strokeWidth="1.5" strokeLinecap="round"/>
<path d="M13 36.6673C17.1421 36.6673 20.5 29.2054 20.5 20.0007C20.5 10.7959 17.1421 3.33398 13 3.33398" stroke="#4DA7FF" strokeWidth="1.5"/>
<path d="M15.5 20C15.5 25.5228 14.3807 30 13 30C11.6193 30 10.5 25.5228 10.5 20C10.5 14.4772 11.6193 10 13 10C14.3807 10 15.5 14.4772 15.5 20Z" stroke="#4DA7FF" strokeWidth="1.5"/>
<path d="M13 3.33398L28 3.33398" stroke="#4DA7FF" strokeWidth="1.5"/>
<path d="M13 36.666H28" stroke="#4DA7FF" strokeWidth="1.5"/>
<path d="M15.4997 20H13.833" stroke="#4DA7FF" strokeWidth="1.5" strokeLinecap="round"/>
</svg>
